<svg id="svg" version="1.1" width="400" height="399.6163989450971" xmlns="http://www.w3.org/2000/svg" xmlns:xlink="http://www.w3.org/1999/xlink" style="display: block;"><g id="svgg"><path id="path0" d="M228.925 113.518 C 226.377 113.890,223.634 115.444,221.268 117.857 L 219.620 119.538 221.602 120.564 C 229.955 124.888,237.637 132.245,241.419 139.542 C 241.840 140.356,241.814 140.368,242.729 138.924 C 246.441 133.065,246.946 127.814,244.320 122.377 C 241.327 116.180,235.131 112.614,228.925 113.518 M145.917 117.227 C 135.500 120.105,133.460 129.152,140.757 140.109 L 142.026 142.015 143.037 140.549 C 147.772 133.686,154.474 127.579,161.917 123.346 C 162.925 122.773,163.806 122.251,163.874 122.186 C 164.176 121.900,159.011 119.113,156.333 118.117 C 152.878 116.833,148.651 116.471,145.917 117.227 M175.417 158.492 C 166.984 160.272,159.100 167.411,157.588 174.636 C 154.847 187.736,168.297 196.315,181.797 190.077 C 188.672 186.901,191.748 181.096,190.896 172.909 C 189.815 162.531,183.620 156.760,175.417 158.492 M222.083 158.567 C 215.913 160.839,211.129 169.491,212.812 175.334 C 215.008 182.958,224.471 188.135,231.333 185.466 C 236.393 183.498,239.383 177.068,237.865 171.417 C 235.454 162.437,228.017 156.383,222.083 158.567 M222.751 171.144 C 225.982 172.612,224.841 177.388,221.321 177.134 C 217.942 176.889,217.370 172.158,220.583 171.034 C 221.333 170.772,222.008 170.806,222.751 171.144 M181.850 173.856 C 182.933 174.218,183.988 175.600,183.995 176.667 C 184.014 179.522,180.568 181.032,178.610 179.027 C 176.300 176.662,178.715 172.808,181.850 173.856 M200.084 185.974 C 197.559 186.810,196.916 189.661,198.858 191.407 C 201.727 193.987,206.500 192.594,206.500 189.178 C 206.500 186.786,202.964 185.021,200.084 185.974 M215.221 197.890 C 210.277 201.983,202.884 203.683,196.456 202.205 C 194.492 201.754,192.342 201.174,192.000 201.004 C 191.408 200.709,190.833 200.658,190.833 200.900 C 190.833 201.047,191.236 201.269,191.875 201.474 C 199.586 203.952,205.871 203.761,211.500 200.879 C 213.194 200.012,216.000 198.046,216.000 197.727 C 216.000 197.397,215.756 197.448,215.221 197.890 M150.544 204.542 C 149.760 205.540,149.315 206.167,148.194 207.851 L 147.683 208.619 148.633 208.395 C 156.598 206.521,162.185 212.394,162.210 222.667 C 162.238 234.453,151.769 237.705,142.709 228.725 C 141.861 227.885,141.140 227.247,141.106 227.307 C 140.904 227.666,140.072 232.249,139.834 234.318 C 139.735 235.181,139.614 235.950,139.567 236.027 C 139.519 236.104,139.841 236.170,140.282 236.174 C 140.723 236.177,146.783 236.287,153.750 236.418 C 160.717 236.549,172.717 236.766,180.417 236.900 C 188.117 237.035,195.554 237.188,196.943 237.241 L 199.470 237.336 200.021 236.460 C 200.324 235.978,200.837 235.154,201.161 234.628 C 201.485 234.103,202.200 232.955,202.750 232.078 C 203.300 231.201,203.862 230.298,204.000 230.072 C 204.137 229.847,205.787 227.215,207.667 224.224 C 209.546 221.233,211.308 218.422,211.583 217.978 C 211.858 217.533,212.721 216.144,213.500 214.889 C 214.279 213.635,215.088 212.331,215.297 211.991 L 215.677 211.372 214.630 211.609 C 212.653 212.056,210.080 212.497,208.000 212.748 C 206.854 212.886,205.317 213.078,204.583 213.175 C 199.951 213.789,187.536 213.427,181.083 212.490 C 167.296 210.489,159.336 208.179,152.778 204.277 C 152.060 203.850,151.448 203.500,151.417 203.500 C 151.387 203.500,150.994 203.969,150.544 204.542 M139.383 243.708 C 139.602 247.842,141.123 252.256,143.412 255.404 C 144.203 256.491,144.241 256.480,144.011 255.236 C 143.507 252.507,144.510 248.035,146.338 244.866 C 146.702 244.234,147.000 243.676,147.000 243.627 C 147.000 243.578,146.269 243.372,145.375 243.170 C 144.481 242.968,143.300 242.699,142.750 242.573 C 140.659 242.093,139.476 241.833,139.382 241.833 C 139.328 241.833,139.328 242.677,139.383 243.708 M186.585 253.709 C 190.207 257.415,192.362 260.595,193.501 263.917 L 193.787 264.750 194.769 264.706 C 195.308 264.682,196.313 264.588,197.000 264.497 C 198.331 264.322,201.037 264.149,208.667 263.753 C 211.279 263.618,213.942 263.433,214.583 263.343 C 215.225 263.253,216.338 263.130,217.057 263.069 L 218.364 262.958 218.287 262.187 C 218.168 260.983,218.638 257.920,219.183 256.346 C 219.456 255.560,219.723 254.785,219.776 254.625 C 219.867 254.349,219.207 254.333,207.478 254.329 C 199.874 254.327,194.826 254.262,194.417 254.160 C 194.050 254.070,193.112 253.856,192.333 253.685 C 188.873 252.927,185.396 252.147,185.167 252.078 C 185.029 252.036,185.668 252.770,186.585 253.709 " stroke="none" fill="#000000" fill-rule="evenodd"></path><path id="path1" d="M192.083 114.599 C 178.802 115.401,167.487 119.303,156.942 126.717 C 147.408 133.421,139.683 143.823,136.187 154.667 C 127.620 181.237,140.090 203.294,167.333 209.761 C 168.662 210.076,170.050 210.406,170.417 210.494 C 171.863 210.840,177.830 211.883,180.500 212.256 C 187.822 213.279,199.591 213.649,204.667 213.015 C 209.059 212.467,210.209 212.310,211.417 212.094 C 213.485 211.724,215.696 211.205,215.845 211.053 C 216.012 210.884,219.082 206.024,221.417 202.233 C 222.033 201.232,222.743 200.096,226.379 194.293 L 227.709 192.170 235.063 192.127 L 242.417 192.083 243.583 189.749 C 249.058 178.794,250.052 164.444,246.244 151.333 C 242.564 138.660,234.722 128.354,223.917 121.987 C 220.848 120.179,215.410 117.741,213.167 117.168 C 212.846 117.086,211.571 116.752,210.333 116.426 C 205.017 115.025,197.496 114.272,192.083 114.599 M180.261 158.182 C 187.596 159.530,192.084 167.940,190.997 178.298 C 189.416 193.361,164.707 197.731,158.392 184.065 C 154.252 175.105,160.042 164.422,171.750 159.420 C 172.576 159.068,174.357 158.534,175.333 158.346 C 175.838 158.249,176.400 158.140,176.583 158.104 C 177.289 157.965,179.316 158.008,180.261 158.182 M228.120 158.615 C 236.002 161.990,240.604 173.116,237.060 180.228 C 230.575 193.241,208.211 182.826,212.890 168.971 C 215.678 160.715,222.380 156.157,228.120 158.615 M220.373 171.330 C 218.730 172.075,218.105 173.995,218.976 175.622 C 219.634 176.850,221.679 177.389,222.958 176.670 C 226.230 174.831,223.786 169.781,220.373 171.330 M179.770 173.996 C 178.239 174.485,177.430 176.522,178.147 178.083 C 179.404 180.820,183.450 180.123,183.789 177.111 C 184.026 175.010,181.857 173.329,179.770 173.996 M203.220 185.764 C 206.090 186.508,207.365 188.482,206.323 190.568 C 205.317 192.583,203.165 193.400,200.795 192.668 C 195.137 190.921,197.471 184.274,203.220 185.764 M216.117 197.612 C 216.387 198.314,211.882 201.164,208.833 202.222 C 205.805 203.273,200.099 203.668,197.250 203.024 C 192.627 201.979,190.667 201.369,190.667 200.975 C 190.667 200.506,190.928 200.472,191.950 200.811 C 199.523 203.315,205.492 203.184,211.053 200.392 C 212.291 199.770,214.991 197.996,215.341 197.574 C 215.609 197.251,215.986 197.270,216.117 197.612 M149.905 208.341 C 140.471 209.573,135.488 219.991,141.109 226.732 C 142.546 228.455,143.058 228.973,144.333 229.987 C 153.328 237.143,162.052 233.540,162.057 222.667 C 162.060 214.479,158.584 209.086,152.821 208.338 C 151.429 208.157,151.314 208.157,149.905 208.341 M146.517 244.855 C 139.958 256.649,146.377 266.340,165.720 273.851 C 166.928 274.320,168.067 274.770,168.250 274.851 C 168.825 275.103,171.872 276.193,172.917 276.520 C 177.722 278.022,183.742 277.865,187.558 276.138 C 196.521 272.081,196.050 263.345,186.351 253.756 L 184.503 251.928 182.043 251.378 C 180.690 251.076,178.908 250.676,178.083 250.490 C 177.258 250.304,176.096 250.047,175.500 249.919 C 174.904 249.791,172.917 249.342,171.083 248.922 C 169.250 248.501,167.075 248.010,166.250 247.829 C 165.425 247.648,164.262 247.388,163.667 247.250 C 163.071 247.112,161.871 246.842,161.000 246.649 C 160.129 246.456,158.817 246.164,158.083 246.000 C 157.350 245.836,156.037 245.545,155.167 245.354 C 154.296 245.162,152.421 244.738,151.000 244.412 C 149.579 244.085,148.143 243.775,147.808 243.723 L 147.200 243.627 146.517 244.855 M220.492 254.283 C 220.031 254.355,219.917 254.568,219.249 256.608 C 214.943 269.756,229.592 277.220,240.621 267.498 C 244.376 264.187,247.833 257.914,247.833 254.410 C 247.833 254.180,221.923 254.060,220.492 254.283 M217.911 311.250 C 217.911 316.017,217.932 317.943,217.958 315.530 C 217.984 313.117,217.984 309.217,217.958 306.863 C 217.932 304.509,217.911 306.483,217.911 311.250 M202.073 311.500 C 202.073 314.112,202.096 315.181,202.125 313.875 C 202.153 312.569,202.153 310.431,202.125 309.125 C 202.096 307.819,202.073 308.887,202.073 311.500 " stroke="none" fill="#e4e4e4" fill-rule="evenodd"></path><path id="path2" d="M167.333 311.250 L 167.333 319.833 169.500 319.833 L 171.667 319.833 171.667 316.333 L 171.667 312.833 174.833 312.833 L 178.000 312.833 178.000 316.333 L 178.000 319.833 180.167 319.833 L 182.333 319.833 182.333 311.250 L 182.333 302.667 180.167 302.667 L 178.000 302.667 178.000 306.083 L 178.000 309.500 174.833 309.500 L 171.667 309.500 171.667 306.083 L 171.667 302.667 169.500 302.667 L 167.333 302.667 167.333 311.250 M189.519 304.626 C 189.117 305.702,188.497 307.371,188.141 308.333 C 187.785 309.296,187.424 310.233,187.338 310.417 C 187.253 310.600,186.792 311.800,186.313 313.083 C 185.835 314.367,185.081 316.383,184.638 317.563 C 184.196 318.744,183.833 319.739,183.833 319.776 C 183.833 319.813,184.896 319.822,186.194 319.796 L 188.555 319.750 189.052 318.288 L 189.549 316.826 192.723 316.871 L 195.897 316.917 196.394 318.375 L 196.891 319.833 199.275 319.833 L 201.660 319.833 201.476 319.375 C 201.375 319.123,201.228 318.767,201.150 318.583 C 201.006 318.242,198.381 311.282,197.096 307.833 C 196.704 306.779,196.096 305.185,195.746 304.292 L 195.110 302.667 192.680 302.668 L 190.250 302.668 189.519 304.626 M205.333 302.826 C 202.440 303.425,202.167 304.169,202.167 311.453 C 202.167 320.074,202.023 319.917,209.917 319.917 C 212.667 319.917,215.123 319.859,215.375 319.788 L 215.833 319.660 215.833 318.059 L 215.833 316.458 213.875 316.586 C 209.895 316.845,207.242 316.787,206.851 316.433 C 206.341 315.971,206.299 306.900,206.805 306.442 C 207.072 306.201,207.647 306.167,211.471 306.167 L 215.833 306.167 215.833 304.417 L 215.833 302.667 210.875 302.686 C 208.148 302.696,205.654 302.759,205.333 302.826 M218.000 311.250 L 218.000 319.833 220.167 319.833 L 222.333 319.833 222.333 316.333 L 222.333 312.833 223.465 312.833 L 224.597 312.833 225.044 313.708 C 225.290 314.190,225.778 315.108,226.129 315.750 C 226.479 316.392,227.125 317.573,227.563 318.375 L 228.360 319.833 230.597 319.833 C 231.827 319.833,232.833 319.795,232.833 319.747 C 232.833 319.653,230.886 316.033,229.934 314.359 C 229.604 313.777,229.333 313.275,229.333 313.243 C 229.333 313.211,229.071 312.738,228.751 312.191 L 228.169 311.198 230.350 307.391 C 231.550 305.297,232.638 303.377,232.770 303.125 L 233.009 302.667 230.713 302.667 L 228.417 302.667 227.936 303.542 C 227.671 304.023,226.809 305.560,226.020 306.958 L 224.585 309.500 223.459 309.500 L 222.333 309.500 222.333 306.083 L 222.333 302.667 220.167 302.667 L 218.000 302.667 218.000 311.250 M193.729 310.668 C 194.245 312.182,194.667 313.475,194.667 313.543 C 194.667 313.611,193.759 313.667,192.649 313.667 C 190.795 313.667,190.640 313.643,190.746 313.375 C 190.809 313.215,191.230 311.996,191.683 310.667 C 192.709 307.650,192.663 307.773,192.733 307.851 C 192.765 307.887,193.213 309.155,193.729 310.668 " stroke="none" fill="#ffffff" fill-rule="evenodd"></path><path id="path3" d="M161.465 236.624 C 162.041 236.656,162.941 236.656,163.465 236.623 C 163.988 236.590,163.517 236.563,162.417 236.564 C 161.317 236.564,160.888 236.591,161.465 236.624 M195.625 237.289 C 196.015 237.324,196.652 237.324,197.042 237.289 C 197.431 237.254,197.112 237.225,196.333 237.225 C 195.554 237.225,195.235 237.254,195.625 237.289 M139.212 242.500 C 139.212 242.912,139.245 243.081,139.284 242.875 C 139.324 242.669,139.324 242.331,139.284 242.125 C 139.245 241.919,139.212 242.088,139.212 242.500 M215.375 263.282 C 215.535 263.323,215.798 263.323,215.958 263.282 C 216.119 263.240,215.987 263.205,215.667 263.205 C 215.346 263.205,215.215 263.240,215.375 263.282 M208.794 263.785 C 209.001 263.824,209.301 263.823,209.460 263.781 C 209.620 263.739,209.450 263.707,209.083 263.709 C 208.717 263.711,208.586 263.745,208.794 263.785 M205.458 263.951 C 205.665 263.991,206.002 263.991,206.208 263.951 C 206.415 263.911,206.246 263.879,205.833 263.879 C 205.421 263.879,205.252 263.911,205.458 263.951 " stroke="none" fill="#111133" fill-rule="evenodd"></path><path id="path4" d="" stroke="none" fill="#001c1c" fill-rule="evenodd"></path><path id="path5" d="M233.167 128.885 C 233.167 128.914,233.410 129.158,233.708 129.427 L 234.250 129.917 233.760 129.375 C 233.304 128.870,233.167 128.757,233.167 128.885 M221.208 170.948 C 221.369 170.990,221.631 170.990,221.792 170.948 C 221.952 170.906,221.821 170.872,221.500 170.872 C 221.179 170.872,221.048 170.906,221.208 170.948 M212.375 172.583 C 212.377 172.950,212.411 173.080,212.451 172.873 C 212.491 172.666,212.490 172.366,212.448 172.206 C 212.406 172.047,212.374 172.217,212.375 172.583 M201.121 203.287 C 201.417 203.324,201.942 203.324,202.288 203.288 C 202.634 203.252,202.392 203.222,201.750 203.221 C 201.108 203.221,200.825 203.250,201.121 203.287 M152.296 236.456 C 152.688 236.491,153.288 236.490,153.629 236.454 C 153.971 236.419,153.650 236.390,152.917 236.390 C 152.183 236.391,151.904 236.420,152.296 236.456 M159.627 236.618 C 159.834 236.658,160.134 236.656,160.294 236.615 C 160.453 236.573,160.283 236.540,159.917 236.542 C 159.550 236.544,159.420 236.578,159.627 236.618 M178.794 236.951 C 179.001 236.991,179.301 236.990,179.460 236.948 C 179.620 236.906,179.450 236.874,179.083 236.875 C 178.717 236.877,178.586 236.911,178.794 236.951 M186.965 237.124 C 187.541 237.156,188.441 237.156,188.965 237.123 C 189.488 237.090,189.017 237.063,187.917 237.064 C 186.817 237.064,186.388 237.091,186.965 237.124 M215.458 254.291 C 216.306 254.321,217.694 254.321,218.542 254.291 C 219.390 254.261,218.696 254.236,217.000 254.236 C 215.304 254.236,214.610 254.261,215.458 254.291 M211.875 263.615 C 212.035 263.657,212.298 263.657,212.458 263.615 C 212.619 263.573,212.487 263.539,212.167 263.539 C 211.846 263.539,211.715 263.573,211.875 263.615 M200.292 264.284 C 200.498 264.324,200.835 264.324,201.042 264.284 C 201.248 264.245,201.079 264.212,200.667 264.212 C 200.254 264.212,200.085 264.245,200.292 264.284 " stroke="none" fill="#22201e" fill-rule="evenodd"></path><path id="path6" d="M224.542 158.115 C 224.702 158.157,224.965 158.157,225.125 158.115 C 225.285 158.073,225.154 158.039,224.833 158.039 C 224.512 158.039,224.381 158.073,224.542 158.115 M142.960 236.285 C 143.168 236.324,143.468 236.323,143.627 236.281 C 143.786 236.239,143.617 236.207,143.250 236.209 C 142.883 236.211,142.753 236.245,142.960 236.285 M209.134 254.291 C 210.078 254.321,211.578 254.321,212.467 254.291 C 213.356 254.261,212.583 254.237,210.750 254.237 C 208.917 254.237,208.189 254.261,209.134 254.291 " stroke="none" fill="#0f2d2d" fill-rule="evenodd"></path><path id="path7" d="M191.750 64.107 C 185.316 64.516,177.619 65.555,172.167 66.749 C 171.112 66.980,169.759 67.276,169.160 67.408 C 162.983 68.764,152.306 72.262,146.750 74.749 C 146.475 74.872,145.901 75.122,145.473 75.304 C 134.416 80.016,121.778 87.973,111.833 96.483 C 104.242 102.979,94.614 113.371,90.500 119.507 C 90.362 119.712,90.087 120.079,89.888 120.324 C 88.391 122.158,83.942 129.164,81.388 133.707 C 69.043 155.670,62.672 183.678,64.511 207.908 C 65.368 219.197,67.153 229.644,69.554 237.417 C 71.017 242.154,72.836 247.532,73.330 248.583 C 73.416 248.767,73.760 249.629,74.093 250.500 C 77.741 260.032,84.018 271.199,91.127 280.808 C 108.233 303.926,133.390 321.652,160.583 329.746 C 161.408 329.992,162.271 330.261,162.500 330.346 C 163.427 330.687,170.432 332.386,173.083 332.913 C 178.046 333.900,181.320 334.394,186.917 335.000 C 194.346 335.804,205.737 335.804,213.500 335.000 C 216.111 334.730,219.394 334.339,219.758 334.256 C 219.946 334.212,220.809 334.066,221.675 333.930 C 236.675 331.578,252.883 326.051,265.333 319.043 C 266.296 318.501,267.450 317.853,267.899 317.602 C 271.895 315.370,277.442 311.710,281.917 308.354 C 283.477 307.183,286.815 304.547,287.000 304.339 C 287.046 304.288,287.495 303.909,287.999 303.498 C 294.186 298.443,301.638 290.641,308.054 282.500 C 309.667 280.454,313.150 275.456,315.198 272.250 C 318.873 266.495,322.253 260.046,325.416 252.750 C 330.745 240.461,334.316 226.035,335.668 211.333 C 336.200 205.551,336.203 193.993,335.674 188.250 C 335.152 182.571,334.495 177.953,333.498 172.936 C 333.026 170.564,332.101 166.547,331.669 165.000 C 331.580 164.679,331.350 163.854,331.159 163.167 C 321.362 127.976,297.839 98.406,265.333 80.419 C 261.546 78.324,254.204 74.869,250.750 73.556 C 249.925 73.242,249.100 72.915,248.917 72.828 C 246.843 71.844,238.331 69.165,233.250 67.897 C 229.547 66.974,228.953 66.844,225.250 66.152 C 214.524 64.148,202.575 63.418,191.750 64.107 M208.932 71.751 C 210.940 71.889,213.108 72.073,213.750 72.159 C 214.392 72.246,215.404 72.364,216.000 72.421 C 230.749 73.832,249.992 80.253,264.167 88.494 C 282.905 99.388,296.947 112.989,309.426 132.333 C 316.601 143.454,323.386 160.599,325.983 174.167 C 326.714 177.989,326.833 178.691,327.232 181.583 C 328.145 188.192,328.305 190.237,328.442 197.083 C 328.542 202.096,328.351 208.358,327.994 211.750 C 327.422 217.180,326.667 222.238,325.918 225.667 C 325.787 226.262,325.595 227.143,325.491 227.624 L 325.300 228.499 302.620 228.541 L 279.939 228.583 278.232 231.333 C 277.293 232.846,276.313 234.421,276.052 234.833 C 275.792 235.246,274.343 237.589,272.831 240.041 C 271.320 242.493,269.858 244.860,269.583 245.300 C 269.308 245.741,268.648 246.829,268.115 247.717 L 267.147 249.333 265.822 249.333 L 264.497 249.333 263.860 250.708 C 263.509 251.465,263.009 252.552,262.749 253.125 L 262.275 254.167 255.163 254.167 L 248.052 254.167 247.771 255.595 C 246.983 259.607,244.987 263.303,241.907 266.454 L 240.397 267.999 274.621 268.041 L 308.846 268.083 307.128 270.667 C 288.730 298.346,258.995 318.697,227.595 325.102 C 209.679 328.756,192.865 328.969,176.000 325.756 C 173.583 325.296,167.442 323.863,166.000 323.423 C 165.587 323.297,164.688 323.032,164.000 322.833 C 137.999 315.333,114.221 298.847,97.652 276.833 C 95.500 273.973,91.667 268.387,91.667 268.110 C 91.667 268.049,105.585 268.000,122.595 268.000 L 153.524 268.000 151.879 266.776 C 148.020 263.904,145.514 260.755,144.565 257.583 C 144.398 257.028,143.997 256.250,143.662 255.833 C 141.198 252.770,139.588 248.235,139.246 243.390 L 139.126 241.696 138.521 241.587 C 136.391 241.204,136.477 241.461,137.358 238.125 L 137.876 236.167 138.688 236.167 C 139.135 236.167,139.504 236.148,139.509 236.125 C 139.514 236.102,139.663 235.033,139.839 233.750 C 140.016 232.467,140.273 230.817,140.410 230.083 C 140.548 229.350,140.662 228.694,140.663 228.625 C 140.665 228.557,125.910 228.482,107.875 228.459 L 75.083 228.417 74.870 227.417 C 69.943 204.298,71.156 181.033,78.427 159.221 C 81.735 149.296,86.546 139.207,91.964 130.833 C 93.800 127.995,94.087 127.563,94.899 126.417 C 108.978 106.531,128.203 90.827,149.417 81.881 C 168.668 73.764,188.671 70.359,208.932 71.751 M149.042 116.786 C 149.294 116.824,149.706 116.824,149.958 116.786 C 150.210 116.748,150.004 116.717,149.500 116.717 C 148.996 116.717,148.790 116.748,149.042 116.786 M136.209 128.250 C 136.211 128.617,136.245 128.747,136.285 128.540 C 136.324 128.332,136.323 128.032,136.281 127.873 C 136.239 127.714,136.207 127.883,136.209 128.250 M246.906 217.478 C 244.840 217.843,243.556 219.017,240.273 223.544 C 236.142 229.239,236.205 229.591,241.333 229.465 C 245.525 229.362,246.019 229.034,249.858 223.804 C 253.355 219.041,253.632 218.473,252.817 217.735 C 252.437 217.391,248.389 217.215,246.906 217.478 M264.893 217.498 C 262.379 218.027,259.356 221.259,260.058 222.666 L 260.296 223.143 259.356 223.524 C 256.544 224.662,254.135 228.712,255.917 229.306 C 257.069 229.690,262.032 229.499,263.070 229.030 C 265.489 227.939,267.869 224.640,267.043 223.523 L 266.712 223.075 267.698 222.596 C 269.878 221.537,271.766 218.594,270.817 217.735 C 270.421 217.377,266.257 217.211,264.893 217.498 M233.860 218.662 L 233.011 219.825 235.545 219.871 C 238.438 219.923,238.562 219.995,237.752 221.164 C 237.354 221.738,236.833 222.026,232.726 223.944 L 228.144 226.083 227.103 227.500 C 226.531 228.279,226.006 229.010,225.938 229.125 C 225.840 229.290,226.744 229.333,230.241 229.333 L 234.668 229.333 235.495 228.208 L 236.321 227.083 233.619 227.000 L 230.917 226.917 232.750 226.026 C 233.758 225.536,235.371 224.754,236.333 224.286 C 239.210 222.891,240.609 221.641,241.636 219.550 C 242.476 217.840,241.782 217.500,237.447 217.500 L 234.708 217.500 233.860 218.662 M256.172 218.311 L 254.093 219.087 253.866 219.891 C 253.584 220.892,253.608 220.914,254.640 220.576 C 256.203 220.065,256.341 219.796,251.964 225.794 C 250.609 227.652,249.500 229.208,249.500 229.252 C 249.500 229.297,250.125 229.333,250.890 229.333 L 252.279 229.333 256.015 224.215 C 258.069 221.401,259.880 218.907,260.038 218.674 C 260.196 218.441,260.449 218.081,260.600 217.875 L 260.874 217.500 259.562 217.518 C 258.435 217.533,257.957 217.645,256.172 218.311 M249.440 219.918 C 249.557 220.222,249.447 220.396,247.072 223.667 C 244.490 227.222,244.667 227.083,242.699 227.083 C 241.368 227.083,241.081 227.038,241.038 226.821 C 240.965 226.447,245.430 220.371,246.062 219.986 C 246.747 219.568,249.286 219.517,249.440 219.918 M267.294 220.001 C 267.559 221.390,263.758 223.197,262.857 222.111 C 262.605 221.808,263.472 220.448,264.205 219.997 C 264.896 219.571,267.213 219.574,267.294 220.001 M162.217 222.667 C 162.217 223.171,162.248 223.377,162.286 223.125 C 162.324 222.873,162.324 222.460,162.286 222.208 C 162.248 221.956,162.217 222.162,162.217 222.667 M264.114 224.925 C 264.212 225.220,263.158 226.663,262.655 226.923 C 261.973 227.275,259.028 227.267,258.892 226.912 C 258.780 226.620,259.529 225.466,260.144 224.982 C 260.610 224.615,263.996 224.567,264.114 224.925 M150.544 236.453 C 150.797 236.491,151.172 236.490,151.377 236.451 C 151.582 236.411,151.375 236.380,150.917 236.381 C 150.458 236.382,150.291 236.415,150.544 236.453 M177.460 236.951 C 177.668 236.991,177.968 236.990,178.127 236.948 C 178.286 236.906,178.117 236.874,177.750 236.875 C 177.383 236.877,177.253 236.911,177.460 236.951 M185.127 237.118 C 185.334 237.158,185.634 237.156,185.794 237.115 C 185.953 237.073,185.783 237.040,185.417 237.042 C 185.050 237.044,184.920 237.078,185.127 237.118 M141.186 239.516 C 140.947 240.201,140.735 240.096,143.569 240.697 C 146.123 241.239,146.232 241.231,146.419 240.473 C 146.525 240.045,146.495 240.023,145.556 239.837 C 145.021 239.731,144.171 239.545,143.667 239.424 C 141.541 238.911,141.395 238.916,141.186 239.516 M149.122 240.949 C 148.809 241.503,148.845 241.996,149.206 242.082 C 149.414 242.131,150.446 242.358,151.500 242.588 C 152.554 242.818,153.541 243.045,153.693 243.093 C 153.896 243.156,154.023 243.020,154.168 242.579 C 154.412 241.840,154.618 241.961,152.250 241.453 C 149.254 240.811,149.204 240.803,149.122 240.949 M202.458 254.291 C 203.398 254.321,204.935 254.321,205.875 254.291 C 206.815 254.261,206.046 254.237,204.167 254.237 C 202.287 254.237,201.519 254.261,202.458 254.291 M218.000 263.014 C 217.333 263.217,212.389 263.641,208.500 263.828 C 202.955 264.095,194.031 264.747,193.881 264.897 C 193.860 264.918,193.928 265.624,194.032 266.467 L 194.220 268.000 207.360 268.000 C 214.587 268.000,220.500 267.963,220.500 267.917 C 220.500 267.871,220.250 267.478,219.945 267.042 C 219.243 266.041,218.703 264.757,218.542 263.705 C 218.423 262.928,218.396 262.893,218.000 263.014 M137.667 285.667 L 137.667 298.333 140.917 298.333 L 144.167 298.333 144.167 294.667 L 144.167 291.000 149.542 291.001 C 157.146 291.001,158.568 290.475,159.681 287.249 C 160.285 285.498,160.292 278.289,159.691 276.786 C 158.284 273.270,157.296 273.000,145.819 273.000 L 137.667 273.000 137.667 285.667 M191.740 273.519 C 190.983 274.322,189.585 275.310,188.318 275.936 L 187.167 276.505 187.167 287.419 L 187.167 298.333 190.417 298.333 L 193.667 298.333 193.668 290.708 L 193.669 283.083 194.543 284.601 C 195.023 285.436,196.992 288.867,198.917 292.225 L 202.417 298.332 205.792 298.332 L 209.167 298.333 209.167 285.667 L 209.167 273.000 206.000 273.000 L 202.833 273.000 202.833 280.619 C 202.833 287.040,202.798 288.200,202.607 287.994 C 202.483 287.860,200.597 284.600,198.416 280.750 C 196.234 276.900,194.347 273.581,194.221 273.375 C 193.840 272.750,192.385 272.834,191.740 273.519 M213.667 285.657 L 213.667 298.333 221.292 298.332 C 230.849 298.331,231.806 298.190,233.701 296.500 C 235.835 294.599,236.155 293.186,236.155 285.667 C 236.155 278.277,235.817 276.709,233.845 274.971 C 231.791 273.160,231.528 273.117,221.875 273.043 L 213.667 272.980 213.667 285.657 M245.610 273.708 C 245.470 274.098,244.942 275.504,244.437 276.833 C 241.886 283.546,238.613 292.181,237.711 294.583 C 237.297 295.683,236.818 296.957,236.646 297.414 C 236.474 297.871,236.333 298.265,236.333 298.289 C 236.333 298.314,237.901 298.333,239.816 298.333 L 243.299 298.333 243.961 296.458 C 244.325 295.427,244.676 294.413,244.740 294.206 L 244.857 293.828 249.468 293.872 L 254.078 293.917 254.892 296.125 L 255.706 298.333 259.182 298.333 L 262.658 298.333 262.145 296.958 C 261.863 296.202,261.494 295.208,261.326 294.750 C 261.157 294.292,260.673 293.017,260.250 291.917 C 259.826 290.817,259.112 288.942,258.663 287.750 C 258.214 286.558,257.405 284.421,256.865 283.000 C 256.324 281.579,255.253 278.748,254.485 276.708 L 253.087 273.000 249.476 273.000 L 245.865 273.000 245.610 273.708 M167.364 275.777 C 167.175 276.312,166.563 277.950,166.002 279.417 C 165.442 280.883,164.618 283.058,164.170 284.250 C 163.723 285.442,162.559 288.517,161.585 291.083 C 160.610 293.650,159.594 296.331,159.327 297.042 L 158.842 298.333 162.320 298.333 L 165.798 298.333 166.566 296.236 C 166.988 295.083,167.333 294.071,167.333 293.986 C 167.333 293.897,169.267 293.833,171.980 293.833 L 176.626 293.833 177.438 296.083 L 178.250 298.333 181.708 298.333 C 183.610 298.333,185.167 298.290,185.167 298.237 C 185.167 298.185,184.871 297.378,184.509 296.446 C 183.885 294.837,181.600 288.802,179.829 284.083 C 177.144 276.927,177.490 277.563,176.197 277.407 C 174.715 277.229,172.432 276.591,170.250 275.747 C 169.150 275.322,168.128 274.935,167.978 274.889 C 167.771 274.825,167.626 275.035,167.364 275.777 M152.664 278.292 C 153.566 278.744,153.661 279.102,153.664 282.034 C 153.668 286.208,153.856 286.064,148.292 286.138 L 144.167 286.192 144.167 282.096 L 144.167 278.000 148.125 278.000 C 151.561 278.000,152.160 278.039,152.664 278.292 M228.333 278.420 C 229.625 279.167,229.682 279.501,229.630 285.917 L 229.583 291.583 229.183 292.144 C 228.428 293.204,227.873 293.326,223.792 293.330 L 220.167 293.333 220.167 285.653 L 220.167 277.973 223.958 278.028 C 227.402 278.078,227.804 278.114,228.333 278.420 M172.342 281.292 C 172.646 282.237,174.790 288.541,174.921 288.875 C 175.028 289.146,174.828 289.167,172.082 289.167 L 169.128 289.167 169.212 288.792 C 169.312 288.350,171.827 280.978,171.942 280.793 C 172.076 280.575,172.135 280.649,172.342 281.292 M251.051 285.043 L 252.449 289.167 249.482 289.167 L 246.514 289.167 247.957 284.917 C 248.751 282.579,249.457 280.724,249.527 280.794 C 249.597 280.863,250.283 282.776,251.051 285.043 " stroke="none" fill="#303653" fill-rule="evenodd"></path><path id="path8" d="M157.214 177.917 C 157.216 178.375,157.248 178.543,157.286 178.289 C 157.325 178.036,157.324 177.661,157.284 177.456 C 157.244 177.251,157.213 177.458,157.214 177.917 M141.794 236.285 C 142.001 236.324,142.301 236.323,142.460 236.281 C 142.620 236.239,142.450 236.207,142.083 236.209 C 141.717 236.211,141.586 236.245,141.794 236.285 M149.375 236.448 C 149.535 236.490,149.798 236.490,149.958 236.448 C 150.119 236.406,149.987 236.372,149.667 236.372 C 149.346 236.372,149.215 236.406,149.375 236.448 M168.460 236.785 C 168.668 236.824,168.968 236.823,169.127 236.781 C 169.286 236.739,169.117 236.707,168.750 236.709 C 168.383 236.711,168.253 236.745,168.460 236.785 M176.294 236.951 C 176.501 236.991,176.801 236.990,176.960 236.948 C 177.120 236.906,176.950 236.874,176.583 236.875 C 176.217 236.877,176.086 236.911,176.294 236.951 M229.500 249.509 C 221.204 249.569,212.091 249.630,209.247 249.643 L 204.078 249.667 203.787 250.487 C 203.619 250.961,203.267 251.500,202.956 251.763 L 202.417 252.219 230.813 252.115 C 256.522 252.020,259.248 251.985,259.618 251.742 C 260.068 251.448,260.657 250.300,260.663 249.708 L 260.667 249.333 252.625 249.366 C 248.202 249.385,237.796 249.449,229.500 249.509 M256.218 254.125 C 257.392 254.153,259.267 254.153,260.385 254.124 C 261.502 254.096,260.542 254.072,258.250 254.072 C 255.958 254.072,255.044 254.096,256.218 254.125 M196.792 254.291 C 197.548 254.322,198.785 254.322,199.542 254.291 C 200.298 254.260,199.679 254.235,198.167 254.235 C 196.654 254.235,196.035 254.260,196.792 254.291 M146.552 291.125 C 147.910 291.153,150.085 291.153,151.385 291.125 C 152.686 291.096,151.575 291.073,148.917 291.074 C 146.258 291.074,145.194 291.097,146.552 291.125 " stroke="none" fill="#3f3f40" fill-rule="evenodd"></path><path id="path9" d="M71.903 199.750 C 71.903 201.583,71.928 202.356,71.957 201.467 C 71.987 200.578,71.988 199.078,71.958 198.134 C 71.928 197.189,71.904 197.917,71.903 199.750 M140.458 236.284 C 140.665 236.324,141.002 236.324,141.208 236.284 C 141.415 236.245,141.246 236.212,140.833 236.212 C 140.421 236.212,140.252 236.245,140.458 236.284 M158.294 236.618 C 158.501 236.658,158.801 236.656,158.960 236.615 C 159.120 236.573,158.950 236.540,158.583 236.542 C 158.217 236.544,158.086 236.578,158.294 236.618 M167.294 236.785 C 167.501 236.824,167.801 236.823,167.960 236.781 C 168.120 236.739,167.950 236.707,167.583 236.709 C 167.217 236.711,167.086 236.745,167.294 236.785 M193.958 237.284 C 194.165 237.324,194.502 237.324,194.708 237.284 C 194.915 237.245,194.746 237.212,194.333 237.212 C 193.921 237.212,193.752 237.245,193.958 237.284 M214.042 249.624 C 214.752 249.655,215.915 249.655,216.625 249.624 C 217.335 249.593,216.754 249.567,215.333 249.567 C 213.912 249.567,213.331 249.593,214.042 249.624 M244.385 252.125 C 245.743 252.153,247.918 252.153,249.219 252.125 C 250.519 252.096,249.408 252.073,246.750 252.074 C 244.092 252.074,243.028 252.097,244.385 252.125 M249.550 254.124 C 250.449 254.154,251.874 254.154,252.717 254.124 C 253.560 254.094,252.825 254.069,251.083 254.069 C 249.342 254.070,248.652 254.094,249.550 254.124 M194.039 267.500 C 194.039 267.821,194.073 267.952,194.115 267.792 C 194.157 267.631,194.157 267.369,194.115 267.208 C 194.073 267.048,194.039 267.179,194.039 267.500 M209.246 285.667 C 209.246 292.679,209.266 295.548,209.292 292.042 C 209.317 288.535,209.317 282.798,209.292 279.292 C 209.266 275.785,209.246 278.654,209.246 285.667 M146.051 286.125 C 147.133 286.154,148.858 286.154,149.884 286.124 C 150.910 286.095,150.025 286.071,147.917 286.071 C 145.808 286.072,144.969 286.095,146.051 286.125 M195.125 327.951 C 195.331 327.991,195.669 327.991,195.875 327.951 C 196.081 327.911,195.912 327.879,195.500 327.879 C 195.088 327.879,194.919 327.911,195.125 327.951 M204.627 327.951 C 204.834 327.991,205.134 327.990,205.294 327.948 C 205.453 327.906,205.283 327.874,204.917 327.875 C 204.550 327.877,204.420 327.911,204.627 327.951 " stroke="none" fill="#414868" fill-rule="evenodd"></path><path id="path10" d="M250.899 192.332 L 227.881 192.417 229.315 193.924 L 230.750 195.431 245.917 195.310 C 282.158 195.022,300.212 194.843,300.284 194.772 C 300.326 194.730,299.819 194.127,299.159 193.431 L 297.958 192.167 285.937 192.207 C 279.326 192.230,263.559 192.286,250.899 192.332 M193.208 213.448 C 193.369 213.490,193.631 213.490,193.792 213.448 C 193.952 213.406,193.821 213.372,193.500 213.372 C 193.179 213.372,193.048 213.406,193.208 213.448 M234.034 219.957 C 234.649 219.989,235.699 219.989,236.368 219.957 C 237.036 219.926,236.533 219.899,235.250 219.899 C 233.967 219.899,233.420 219.925,234.034 219.957 M263.877 222.286 C 264.131 222.325,264.506 222.324,264.711 222.284 C 264.916 222.244,264.708 222.213,264.250 222.214 C 263.792 222.216,263.624 222.248,263.877 222.286 M152.960 233.785 C 153.168 233.824,153.468 233.823,153.627 233.781 C 153.786 233.739,153.617 233.707,153.250 233.709 C 152.883 233.711,152.753 233.745,152.960 233.785 M137.944 236.289 C 137.843 236.453,136.667 241.061,136.718 241.098 C 136.752 241.122,143.395 242.607,146.333 243.247 C 147.296 243.456,149.996 244.059,152.333 244.585 C 154.671 245.112,157.183 245.673,157.917 245.833 C 160.298 246.352,179.107 250.576,185.000 251.917 C 186.512 252.261,189.495 252.933,191.629 253.410 L 195.507 254.279 195.828 253.181 C 196.486 250.930,196.823 249.601,196.755 249.533 C 196.716 249.494,196.212 249.358,195.634 249.231 C 195.056 249.104,193.908 248.852,193.083 248.671 C 192.258 248.490,189.783 247.933,187.583 247.434 C 181.935 246.152,175.911 244.793,171.250 243.748 C 169.050 243.255,166.237 242.621,165.000 242.339 C 163.762 242.056,161.587 241.565,160.167 241.247 C 152.846 239.606,144.925 237.820,141.000 236.925 C 139.671 236.622,138.460 236.322,138.309 236.259 C 138.157 236.196,137.993 236.209,137.944 236.289 M148.127 236.451 C 148.334 236.491,148.634 236.490,148.794 236.448 C 148.953 236.406,148.783 236.374,148.417 236.375 C 148.050 236.377,147.920 236.411,148.127 236.451 M157.127 236.618 C 157.334 236.658,157.634 236.656,157.794 236.615 C 157.953 236.573,157.783 236.540,157.417 236.542 C 157.050 236.544,156.920 236.578,157.127 236.618 M165.958 236.784 C 166.165 236.824,166.502 236.824,166.708 236.784 C 166.915 236.745,166.746 236.712,166.333 236.712 C 165.921 236.712,165.752 236.745,165.958 236.784 M174.792 236.951 C 174.998 236.991,175.335 236.991,175.542 236.951 C 175.748 236.911,175.579 236.879,175.167 236.879 C 174.754 236.879,174.585 236.911,174.792 236.951 M183.794 237.118 C 184.001 237.158,184.301 237.156,184.460 237.115 C 184.620 237.073,184.450 237.040,184.083 237.042 C 183.717 237.044,183.586 237.078,183.794 237.118 M192.794 237.285 C 193.001 237.324,193.301 237.323,193.460 237.281 C 193.620 237.239,193.450 237.207,193.083 237.209 C 192.717 237.211,192.586 237.245,192.794 237.285 M144.250 239.476 L 146.417 239.944 146.397 240.561 C 146.370 241.409,146.514 241.397,143.610 240.796 C 140.809 240.217,140.801 240.212,141.164 239.257 C 141.292 238.920,141.410 238.845,141.706 238.916 C 141.913 238.966,143.058 239.218,144.250 239.476 M171.250 239.484 C 171.525 239.560,173.775 240.080,176.250 240.639 C 178.725 241.199,182.588 242.072,184.833 242.580 C 193.338 244.503,194.916 244.835,194.963 244.711 C 194.989 244.641,195.674 243.533,196.486 242.250 C 197.297 240.967,197.935 239.889,197.904 239.854 C 197.873 239.820,193.926 239.732,189.132 239.658 C 184.339 239.583,178.242 239.483,175.583 239.435 C 172.915 239.386,170.974 239.408,171.250 239.484 M151.970 241.314 C 154.536 241.875,154.387 241.793,154.242 242.566 C 154.107 243.285,154.328 243.282,151.250 242.615 C 148.550 242.030,148.621 242.079,149.012 241.051 C 149.120 240.767,149.255 240.672,149.459 240.737 C 149.620 240.788,150.749 241.048,151.970 241.314 M240.458 249.457 C 241.215 249.488,242.452 249.488,243.208 249.457 C 243.965 249.426,243.346 249.401,241.833 249.401 C 240.321 249.401,239.702 249.426,240.458 249.457 M202.067 250.499 C 201.929 251.004,201.749 251.578,201.669 251.775 C 201.448 252.315,201.663 252.333,208.000 252.292 L 213.750 252.255 208.105 252.208 L 202.461 252.162 202.881 251.832 C 203.112 251.650,203.472 251.090,203.680 250.587 L 204.059 249.672 208.405 249.617 C 212.399 249.566,212.328 249.562,207.535 249.571 L 202.319 249.581 202.067 250.499 M253.375 252.124 C 254.452 252.153,256.215 252.153,257.292 252.124 C 258.369 252.095,257.487 252.072,255.333 252.072 C 253.179 252.072,252.298 252.095,253.375 252.124 " stroke="none" fill="#58595b" fill-rule="evenodd"></path><path id="path11" d="M290.750 109.000 C 291.479 109.733,292.113 110.333,292.159 110.333 C 292.205 110.333,291.646 109.733,290.917 109.000 C 290.188 108.267,289.554 107.667,289.508 107.667 C 289.462 107.667,290.021 108.267,290.750 109.000 M266.968 192.291 C 268.280 192.320,270.380 192.319,271.635 192.291 C 272.890 192.263,271.817 192.240,269.250 192.240 C 266.683 192.240,265.657 192.263,266.968 192.291 M184.625 239.618 C 184.831 239.657,185.169 239.657,185.375 239.618 C 185.581 239.578,185.412 239.545,185.000 239.545 C 184.588 239.545,184.419 239.578,184.625 239.618 M202.877 249.620 C 203.131 249.658,203.506 249.657,203.711 249.617 C 203.916 249.578,203.708 249.546,203.250 249.548 C 202.792 249.549,202.624 249.581,202.877 249.620 M215.958 252.291 C 217.265 252.319,219.402 252.319,220.708 252.291 C 222.015 252.263,220.946 252.240,218.333 252.240 C 215.721 252.240,214.652 252.263,215.958 252.291 M202.628 280.500 C 202.604 284.625,202.640 288.000,202.708 288.000 C 202.777 288.000,202.833 284.625,202.833 280.500 C 202.833 276.375,202.797 273.000,202.753 273.000 C 202.709 273.000,202.653 276.375,202.628 280.500 M164.083 298.333 L 162.250 298.434 164.032 298.467 C 165.077 298.486,165.856 298.431,165.917 298.333 C 165.973 298.242,165.996 298.181,165.968 298.200 C 165.940 298.218,165.092 298.278,164.083 298.333 M181.667 298.333 L 178.083 298.427 181.615 298.463 C 183.830 298.486,185.185 298.438,185.250 298.333 C 185.307 298.242,185.330 298.183,185.302 298.203 C 185.273 298.223,183.637 298.282,181.667 298.333 M236.311 298.378 C 236.382 298.449,238.010 298.486,239.928 298.462 L 243.417 298.416 239.800 298.333 C 237.810 298.287,236.241 298.308,236.311 298.378 M139.375 298.458 C 140.269 298.488,141.731 298.488,142.625 298.458 C 143.519 298.428,142.787 298.403,141.000 298.403 C 139.212 298.403,138.481 298.428,139.375 298.458 M188.708 298.458 C 189.602 298.488,191.065 298.488,191.958 298.458 C 192.852 298.428,192.121 298.403,190.333 298.403 C 188.546 298.403,187.815 298.428,188.708 298.458 M204.125 298.458 C 205.065 298.487,206.602 298.487,207.542 298.458 C 208.481 298.428,207.713 298.404,205.833 298.404 C 203.954 298.404,203.185 298.428,204.125 298.458 M217.375 298.458 C 219.460 298.485,222.873 298.485,224.958 298.458 C 227.044 298.432,225.338 298.410,221.167 298.410 C 216.996 298.410,215.290 298.432,217.375 298.458 M257.375 298.458 C 258.360 298.487,259.973 298.487,260.958 298.458 C 261.944 298.428,261.137 298.404,259.167 298.404 C 257.196 298.404,256.390 298.428,257.375 298.458 " stroke="none" fill="#536487" fill-rule="evenodd"></path><path id="path12" d="M246.048 129.250 C 246.049 129.708,246.081 129.876,246.120 129.623 C 246.158 129.369,246.157 128.994,246.117 128.789 C 246.078 128.584,246.046 128.792,246.048 129.250 M251.053 192.292 C 253.604 192.317,257.729 192.317,260.220 192.292 C 262.712 192.266,260.625 192.244,255.583 192.244 C 250.542 192.244,248.503 192.266,251.053 192.292 M226.329 194.581 C 225.552 195.815,224.772 197.070,224.594 197.370 C 224.284 197.896,223.201 199.618,222.417 200.833 C 222.210 201.154,220.674 203.610,219.004 206.292 C 217.334 208.973,215.895 211.167,215.807 211.167 C 215.719 211.167,215.685 211.228,215.732 211.304 C 215.778 211.379,214.552 213.460,213.006 215.929 C 211.461 218.397,208.113 223.754,205.567 227.833 C 203.021 231.912,200.295 236.240,199.510 237.451 L 198.083 239.652 196.833 239.689 L 195.583 239.727 196.783 239.822 L 197.982 239.917 196.727 241.917 C 196.037 243.017,195.135 244.424,194.723 245.045 C 193.836 246.382,193.783 246.140,195.333 247.850 C 196.021 248.609,196.565 249.309,196.542 249.406 C 196.451 249.792,197.387 248.461,198.877 246.083 C 199.739 244.708,201.556 241.821,202.914 239.667 C 204.273 237.512,205.828 235.037,206.370 234.167 C 207.396 232.519,207.968 231.610,212.500 224.417 C 217.034 217.220,217.604 216.314,218.630 214.667 C 219.172 213.796,220.987 210.908,222.664 208.250 C 224.340 205.592,226.831 201.633,228.200 199.453 L 230.690 195.488 229.859 194.536 C 229.402 194.012,228.739 193.303,228.385 192.961 L 227.741 192.338 226.329 194.581 M294.867 194.957 C 295.664 194.988,297.014 194.988,297.867 194.958 C 298.719 194.927,298.067 194.902,296.417 194.902 C 294.767 194.902,294.069 194.927,294.867 194.957 M272.875 195.125 C 274.502 195.152,277.165 195.152,278.792 195.125 C 280.419 195.097,279.087 195.075,275.833 195.075 C 272.579 195.075,271.248 195.097,272.875 195.125 M256.047 195.289 C 256.485 195.324,257.160 195.323,257.547 195.288 C 257.934 195.254,257.575 195.225,256.750 195.226 C 255.925 195.226,255.609 195.255,256.047 195.289 M232.542 195.456 C 232.977 195.490,233.690 195.490,234.125 195.456 C 234.560 195.422,234.204 195.393,233.333 195.393 C 232.463 195.393,232.106 195.422,232.542 195.456 M194.377 213.453 C 194.631 213.491,195.006 213.490,195.211 213.451 C 195.416 213.411,195.208 213.380,194.750 213.381 C 194.292 213.382,194.124 213.415,194.377 213.453 M197.375 213.453 C 197.627 213.491,198.040 213.491,198.292 213.453 C 198.544 213.415,198.338 213.383,197.833 213.383 C 197.329 213.383,197.123 213.415,197.375 213.453 M247.461 219.787 C 247.761 219.825,248.211 219.824,248.461 219.786 C 248.712 219.748,248.467 219.717,247.917 219.718 C 247.367 219.719,247.162 219.750,247.461 219.787 M265.625 219.784 C 265.831 219.824,266.169 219.824,266.375 219.784 C 266.581 219.745,266.412 219.712,266.000 219.712 C 265.587 219.712,265.419 219.745,265.625 219.784 M138.559 236.356 C 138.774 236.482,138.976 236.483,139.225 236.362 C 139.538 236.211,139.498 236.188,138.917 236.183 C 138.362 236.178,138.302 236.207,138.559 236.356 M145.963 236.456 C 146.355 236.491,146.955 236.490,147.296 236.454 C 147.637 236.419,147.317 236.390,146.583 236.390 C 145.850 236.391,145.571 236.420,145.963 236.456 M155.792 236.618 C 155.998 236.657,156.335 236.657,156.542 236.618 C 156.748 236.578,156.579 236.545,156.167 236.545 C 155.754 236.545,155.585 236.578,155.792 236.618 M164.625 236.784 C 164.831 236.824,165.169 236.824,165.375 236.784 C 165.581 236.745,165.412 236.712,165.000 236.712 C 164.587 236.712,164.419 236.745,164.625 236.784 M172.629 236.956 C 173.021 236.991,173.621 236.990,173.963 236.954 C 174.304 236.919,173.983 236.890,173.250 236.890 C 172.517 236.891,172.237 236.920,172.629 236.956 M181.629 237.122 C 182.021 237.157,182.621 237.157,182.963 237.121 C 183.304 237.085,182.983 237.057,182.250 237.057 C 181.517 237.058,181.237 237.087,181.629 237.122 M191.460 237.285 C 191.668 237.324,191.968 237.323,192.127 237.281 C 192.286 237.239,192.117 237.207,191.750 237.209 C 191.383 237.211,191.253 237.245,191.460 237.285 M176.882 239.457 C 177.504 239.489,178.479 239.489,179.049 239.457 C 179.618 239.424,179.108 239.398,177.917 239.398 C 176.725 239.398,176.259 239.425,176.882 239.457 M187.042 239.624 C 187.844 239.655,189.156 239.655,189.958 239.624 C 190.760 239.594,190.104 239.569,188.500 239.569 C 186.896 239.569,186.240 239.594,187.042 239.624 M235.050 249.458 C 235.856 249.488,237.131 249.488,237.883 249.457 C 238.635 249.426,237.975 249.401,236.417 249.402 C 234.858 249.402,234.243 249.427,235.050 249.458 M260.832 249.625 C 260.828 250.227,260.026 251.645,259.554 251.883 C 259.073 252.126,201.876 252.487,201.637 252.248 C 201.584 252.195,201.719 251.574,201.937 250.868 C 202.155 250.161,202.333 249.565,202.333 249.542 C 202.333 249.519,201.105 249.500,199.604 249.500 L 196.875 249.500 196.271 251.659 C 195.939 252.846,195.667 253.908,195.667 254.018 C 195.667 254.173,201.521 254.193,221.792 254.106 C 236.160 254.044,251.147 253.995,255.095 253.997 L 262.274 254.000 262.662 253.125 C 262.876 252.644,263.339 251.624,263.692 250.858 C 264.045 250.093,264.333 249.437,264.333 249.400 C 264.333 249.363,263.546 249.333,262.583 249.333 C 261.028 249.333,260.833 249.366,260.832 249.625 M159.714 298.457 C 160.245 298.490,161.070 298.490,161.548 298.456 C 162.026 298.422,161.592 298.395,160.583 298.396 C 159.575 298.396,159.184 298.424,159.714 298.457 M197.294 327.951 C 197.501 327.991,197.801 327.990,197.960 327.948 C 198.120 327.906,197.950 327.874,197.583 327.875 C 197.217 327.877,197.086 327.911,197.294 327.951 M202.460 327.951 C 202.668 327.991,202.968 327.990,203.127 327.948 C 203.286 327.906,203.117 327.874,202.750 327.875 C 202.383 327.877,202.253 327.911,202.460 327.951 " stroke="none" fill="#6d6e70" fill-rule="evenodd"></path><path id="path13" d="M239.708 192.291 C 240.969 192.320,243.031 192.320,244.292 192.291 C 245.552 192.263,244.521 192.240,242.000 192.240 C 239.479 192.240,238.448 192.263,239.708 192.291 M299.627 194.951 C 299.834 194.991,300.134 194.990,300.294 194.948 C 300.453 194.906,300.283 194.874,299.917 194.875 C 299.550 194.877,299.420 194.911,299.627 194.951 M283.033 195.124 C 283.831 195.154,285.181 195.155,286.033 195.124 C 286.886 195.094,286.233 195.069,284.583 195.069 C 282.933 195.069,282.236 195.093,283.033 195.124 M258.875 195.289 C 259.310 195.324,260.023 195.324,260.458 195.289 C 260.894 195.255,260.537 195.227,259.667 195.227 C 258.796 195.227,258.440 195.255,258.875 195.289 M236.200 195.457 C 236.997 195.488,238.347 195.488,239.200 195.458 C 240.052 195.427,239.400 195.402,237.750 195.402 C 236.100 195.402,235.402 195.427,236.200 195.457 M261.573 219.208 L 261.083 219.750 261.625 219.260 C 262.130 218.804,262.243 218.667,262.115 218.667 C 262.086 218.667,261.842 218.910,261.573 219.208 M231.224 226.875 C 231.182 226.944,232.370 226.986,233.865 226.969 C 236.635 226.938,236.354 226.872,233.109 226.794 C 232.114 226.770,231.266 226.806,231.224 226.875 M139.167 236.381 C 139.212 236.428,141.612 236.995,144.500 237.643 C 147.387 238.290,151.250 239.161,153.083 239.578 C 154.917 239.995,157.729 240.630,159.333 240.989 C 160.938 241.349,164.125 242.066,166.417 242.585 C 172.337 243.924,172.784 244.024,177.417 245.063 C 181.603 246.002,185.728 246.932,190.833 248.087 C 192.346 248.429,194.318 248.875,195.215 249.077 C 196.247 249.310,196.885 249.385,196.949 249.280 C 197.006 249.189,196.972 249.165,196.874 249.225 C 196.721 249.320,194.174 246.729,194.032 246.334 C 194.004 246.255,194.168 245.895,194.396 245.532 L 194.812 244.874 194.281 244.779 C 193.989 244.727,192.925 244.493,191.917 244.258 C 190.908 244.024,188.546 243.491,186.667 243.073 C 184.787 242.656,182.800 242.208,182.250 242.077 C 181.700 241.946,178.887 241.310,176.000 240.663 C 173.112 240.017,170.675 239.453,170.583 239.410 C 170.405 239.327,183.091 239.438,192.417 239.602 L 198.083 239.702 198.779 238.559 L 199.474 237.417 193.362 237.303 C 190.000 237.240,182.787 237.107,177.333 237.006 C 171.879 236.906,163.892 236.755,159.583 236.670 C 144.481 236.374,139.084 236.298,139.167 236.381 M267.069 248.998 C 266.968 249.099,264.429 249.180,260.494 249.208 L 254.083 249.254 260.521 249.294 C 266.074 249.328,266.988 249.299,267.167 249.083 C 267.398 248.805,267.325 248.741,267.069 248.998 M229.200 249.457 C 229.997 249.488,231.347 249.488,232.200 249.458 C 233.052 249.427,232.400 249.402,230.750 249.402 C 229.100 249.402,228.402 249.427,229.200 249.457 M230.697 254.125 C 232.502 254.152,235.502 254.152,237.364 254.125 C 239.226 254.098,237.750 254.076,234.083 254.076 C 230.417 254.076,228.893 254.098,230.697 254.125 M144.242 278.212 C 144.197 278.329,144.182 280.147,144.208 282.254 L 144.257 286.083 144.295 282.128 L 144.333 278.173 148.042 278.125 L 151.750 278.077 148.036 278.038 C 145.157 278.009,144.305 278.048,144.242 278.212 M224.048 278.123 C 224.578 278.157,225.403 278.156,225.881 278.123 C 226.359 278.089,225.925 278.062,224.917 278.062 C 223.908 278.063,223.517 278.090,224.048 278.123 M160.233 282.083 C 160.234 283.458,160.259 283.999,160.291 283.284 C 160.322 282.569,160.322 281.444,160.290 280.784 C 160.259 280.124,160.233 280.708,160.233 282.083 M236.240 285.667 C 236.240 288.279,236.263 289.348,236.291 288.042 C 236.319 286.735,236.319 284.598,236.291 283.292 C 236.263 281.985,236.240 283.054,236.240 285.667 M110.500 291.417 C 110.811 291.737,111.103 292.000,111.149 292.000 C 111.195 292.000,110.978 291.737,110.667 291.417 C 110.356 291.096,110.064 290.833,110.018 290.833 C 109.972 290.833,110.189 291.096,110.500 291.417 M144.238 294.750 C 144.238 296.767,144.262 297.569,144.291 296.532 C 144.320 295.496,144.320 293.846,144.291 292.866 C 144.262 291.885,144.238 292.733,144.238 294.750 " stroke="none" fill="#818385" fill-rule="evenodd"></path><path id="path14" d="M168.724 300.172 C 167.134 300.490,165.810 301.599,165.232 303.099 C 164.939 303.859,164.917 304.466,164.917 311.750 L 164.917 319.583 165.360 320.417 C 165.806 321.254,166.546 322.045,167.348 322.540 C 168.377 323.175,168.871 323.183,200.833 323.133 L 231.917 323.083 232.889 322.591 C 235.411 321.313,235.417 321.288,235.417 311.583 C 235.417 301.879,235.411 301.854,232.889 300.576 L 231.917 300.083 200.667 300.059 C 183.479 300.045,169.105 300.096,168.724 300.172 M171.833 305.917 L 171.833 309.333 174.833 309.333 L 177.833 309.333 177.833 305.917 L 177.833 302.500 180.167 302.500 L 182.500 302.500 182.500 311.250 L 182.500 320.000 180.167 320.000 L 177.833 320.000 177.833 316.500 L 177.833 313.000 174.833 313.000 L 171.833 313.000 171.833 316.500 L 171.833 320.000 169.500 320.000 L 167.167 320.000 167.167 311.361 C 167.167 306.610,167.217 302.672,167.278 302.611 C 167.339 302.550,168.389 302.500,169.611 302.500 L 171.833 302.500 171.833 305.917 M196.136 304.917 C 196.623 306.200,197.388 308.225,197.835 309.417 C 198.282 310.608,199.357 313.458,200.224 315.750 L 201.801 319.917 199.371 319.963 C 196.606 320.016,196.882 320.162,196.215 318.288 L 195.753 316.993 192.683 317.038 L 189.613 317.083 189.098 318.541 L 188.583 319.999 186.125 320.000 C 184.586 320.000,183.667 319.937,183.667 319.832 C 183.667 319.740,183.924 319.009,184.239 318.207 C 184.822 316.720,187.374 309.986,188.833 306.083 C 189.279 304.892,189.773 303.596,189.932 303.204 L 190.221 302.492 192.735 302.537 L 195.250 302.583 196.136 304.917 M215.964 304.367 L 216.011 306.151 211.595 306.201 C 205.970 306.264,206.597 305.628,206.534 311.339 L 206.485 315.833 206.924 316.272 L 207.362 316.711 211.681 316.589 L 216.000 316.468 216.000 318.071 C 216.000 320.125,216.268 320.017,210.917 320.124 C 204.758 320.248,203.508 319.956,202.500 318.159 L 202.083 317.417 202.029 311.917 C 201.936 302.534,201.953 302.516,211.083 302.560 L 215.917 302.583 215.964 304.367 M222.333 305.924 L 222.333 309.349 223.450 309.299 L 224.567 309.250 225.339 307.909 C 225.764 307.171,226.397 306.046,226.746 305.409 C 227.096 304.772,227.603 303.856,227.873 303.375 L 228.365 302.500 230.784 302.500 C 233.018 302.500,233.194 302.522,233.092 302.792 C 233.031 302.952,231.932 304.906,230.649 307.134 L 228.317 311.184 228.636 311.717 C 228.812 312.010,229.238 312.775,229.584 313.417 C 229.930 314.058,230.527 315.146,230.911 315.833 C 231.296 316.521,231.964 317.740,232.397 318.542 L 233.184 320.000 230.717 319.997 L 228.250 319.993 227.443 318.455 C 227.000 317.609,226.147 316.035,225.549 314.958 L 224.462 313.000 223.398 313.000 L 222.333 313.000 222.333 316.500 L 222.333 320.000 220.083 320.000 L 217.833 320.000 217.833 311.250 L 217.833 302.500 220.083 302.500 L 222.333 302.500 222.333 305.924 M192.508 308.730 C 192.415 308.974,192.004 310.147,191.595 311.337 L 190.850 313.500 192.686 313.500 C 194.513 313.500,194.522 313.498,194.410 313.125 C 194.187 312.379,192.798 308.415,192.738 308.352 C 192.704 308.316,192.600 308.486,192.508 308.730 " stroke="none" fill="#d45251" fill-rule="evenodd"></path><path id="path15" d="" stroke="none" fill="#c16a6c" fill-rule="evenodd"></path><path id="path16" d="M196.875 71.615 C 197.035 71.657,197.298 71.657,197.458 71.615 C 197.619 71.573,197.487 71.539,197.167 71.539 C 196.846 71.539,196.715 71.573,196.875 71.615 M202.875 71.615 C 203.035 71.657,203.298 71.657,203.458 71.615 C 203.619 71.573,203.487 71.539,203.167 71.539 C 202.846 71.539,202.715 71.573,202.875 71.615 M110.740 107.875 L 110.250 108.417 110.792 107.927 C 111.297 107.471,111.410 107.333,111.281 107.333 C 111.252 107.333,111.009 107.577,110.740 107.875 M108.073 110.542 L 107.583 111.083 108.125 110.594 C 108.423 110.325,108.667 110.081,108.667 110.052 C 108.667 109.923,108.529 110.037,108.073 110.542 M230.544 113.286 C 230.797 113.325,231.172 113.324,231.377 113.284 C 231.582 113.244,231.375 113.213,230.917 113.214 C 230.458 113.216,230.291 113.248,230.544 113.286 M293.458 192.124 C 294.306 192.154,295.694 192.154,296.542 192.124 C 297.390 192.094,296.696 192.069,295.000 192.069 C 293.304 192.069,292.610 192.094,293.458 192.124 M328.209 192.917 C 328.211 193.283,328.245 193.414,328.285 193.206 C 328.324 192.999,328.323 192.699,328.281 192.540 C 328.239 192.380,328.207 192.550,328.209 192.917 M328.212 206.500 C 328.212 206.912,328.245 207.081,328.284 206.875 C 328.324 206.669,328.324 206.331,328.284 206.125 C 328.245 205.919,328.212 206.088,328.212 206.500 M95.031 268.125 C 96.835 268.152,99.835 268.152,101.697 268.125 C 103.560 268.098,102.083 268.076,98.417 268.076 C 94.750 268.076,93.226 268.098,95.031 268.125 M123.305 268.125 C 128.926 268.149,138.076 268.149,143.638 268.125 C 149.200 268.101,144.600 268.081,133.417 268.081 C 122.233 268.081,117.683 268.101,123.305 268.125 M200.804 268.125 C 204.500 268.150,210.500 268.150,214.137 268.125 C 217.774 268.100,214.750 268.079,207.417 268.079 C 200.083 268.079,197.108 268.100,200.804 268.125 M252.417 268.124 C 285.265 268.237,308.667 268.238,308.667 268.125 C 308.667 268.056,293.235 268.018,274.375 268.041 C 255.515 268.063,245.633 268.100,252.417 268.124 M213.573 277.333 C 213.573 279.762,213.596 280.756,213.625 279.542 C 213.653 278.327,213.653 276.340,213.625 275.125 C 213.596 273.910,213.573 274.904,213.573 277.333 M187.079 287.417 C 187.079 293.467,187.099 295.917,187.125 292.863 C 187.150 289.808,187.150 284.858,187.125 281.863 C 187.099 278.867,187.079 281.367,187.079 287.417 M221.047 278.123 C 221.485 278.157,222.160 278.157,222.547 278.122 C 222.934 278.087,222.575 278.059,221.750 278.059 C 220.925 278.060,220.609 278.088,221.047 278.123 M220.247 287.583 L 220.250 293.250 223.667 293.255 L 227.083 293.261 223.711 293.210 L 220.338 293.160 220.290 287.538 L 220.243 281.917 220.247 287.583 M213.576 292.167 C 213.576 295.604,213.598 297.010,213.625 295.292 C 213.652 293.573,213.652 290.760,213.625 289.042 C 213.598 287.323,213.576 288.729,213.576 292.167 M170.542 289.124 C 171.344 289.155,172.656 289.155,173.458 289.124 C 174.260 289.094,173.604 289.069,172.000 289.069 C 170.396 289.069,169.740 289.094,170.542 289.124 M246.960 289.118 C 247.168 289.158,247.468 289.156,247.627 289.115 C 247.786 289.073,247.617 289.040,247.250 289.042 C 246.883 289.044,246.753 289.078,246.960 289.118 M109.000 289.885 C 109.000 289.914,109.244 290.158,109.542 290.427 L 110.083 290.917 109.594 290.375 C 109.138 289.870,109.000 289.757,109.000 289.885 M169.708 293.958 C 170.969 293.986,173.031 293.986,174.292 293.958 C 175.552 293.930,174.521 293.906,172.000 293.906 C 169.479 293.906,168.448 293.930,169.708 293.958 M247.208 293.958 C 248.469 293.986,250.531 293.986,251.792 293.958 C 253.052 293.930,252.021 293.906,249.500 293.906 C 246.979 293.906,245.948 293.930,247.208 293.958 M190.542 327.615 C 190.702 327.657,190.965 327.657,191.125 327.615 C 191.285 327.573,191.154 327.539,190.833 327.539 C 190.512 327.539,190.381 327.573,190.542 327.615 M199.125 327.957 C 199.698 327.989,200.635 327.989,201.208 327.957 C 201.781 327.924,201.313 327.898,200.167 327.898 C 199.021 327.898,198.552 327.924,199.125 327.957 " stroke="none" fill="#7692bc" fill-rule="evenodd"></path><path id="path17" d="M235.573 308.833 C 235.573 311.262,235.596 312.256,235.625 311.042 C 235.653 309.827,235.653 307.840,235.625 306.625 C 235.596 305.410,235.573 306.404,235.573 308.833 M235.550 318.000 C 235.550 318.504,235.581 318.710,235.619 318.458 C 235.658 318.206,235.658 317.794,235.619 317.542 C 235.581 317.290,235.550 317.496,235.550 318.000 " stroke="none" fill="#b18185" fill-rule="evenodd"></path><path id="path18" d="M215.896 304.417 C 215.896 305.425,215.924 305.816,215.957 305.286 C 215.990 304.755,215.990 303.930,215.956 303.452 C 215.922 302.974,215.895 303.408,215.896 304.417 M191.708 313.623 C 192.235 313.656,193.098 313.656,193.625 313.623 C 194.152 313.590,193.721 313.563,192.667 313.563 C 191.612 313.563,191.181 313.590,191.708 313.623 M215.894 318.083 C 215.895 319.000,215.923 319.354,215.956 318.869 C 215.990 318.385,215.990 317.635,215.956 317.203 C 215.921 316.770,215.894 317.167,215.894 318.083 " stroke="none" fill="#d86662" fill-rule="evenodd"></path><path id="path19" d="M242.033 195.457 C 242.831 195.488,244.181 195.488,245.033 195.458 C 245.886 195.427,245.233 195.402,243.583 195.402 C 241.933 195.402,241.236 195.427,242.033 195.457 M271.209 218.417 C 271.211 218.783,271.245 218.914,271.285 218.706 C 271.324 218.499,271.323 218.199,271.281 218.040 C 271.239 217.880,271.207 218.050,271.209 218.417 M260.042 227.121 C 260.385 227.157,260.948 227.157,261.292 227.121 C 261.635 227.085,261.354 227.056,260.667 227.056 C 259.979 227.056,259.698 227.085,260.042 227.121 M250.549 249.291 C 251.264 249.322,252.389 249.322,253.049 249.290 C 253.710 249.259,253.125 249.233,251.750 249.233 C 250.375 249.234,249.835 249.259,250.549 249.291 " stroke="none" fill="#a78d9d" fill-rule="evenodd"></path><path id="path20" d="M167.243 302.708 C 167.199 302.823,167.184 306.742,167.208 311.417 L 167.253 319.917 167.293 311.297 L 167.333 302.676 169.542 302.625 L 171.750 302.573 169.536 302.536 C 167.892 302.509,167.302 302.554,167.243 302.708 M177.908 302.713 C 177.863 302.831,177.848 304.387,177.875 306.172 L 177.924 309.417 177.962 306.047 L 178.000 302.676 180.208 302.625 L 182.417 302.573 180.203 302.536 C 178.532 302.509,177.969 302.552,177.908 302.713 M191.549 302.624 C 192.264 302.655,193.389 302.655,194.049 302.624 C 194.710 302.592,194.125 302.566,192.750 302.567 C 191.375 302.567,190.835 302.593,191.549 302.624 M208.792 302.625 C 210.098 302.653,212.235 302.653,213.542 302.625 C 214.848 302.596,213.779 302.573,211.167 302.573 C 208.554 302.573,207.485 302.596,208.792 302.625 M218.868 302.623 C 219.482 302.655,220.532 302.656,221.201 302.624 C 221.870 302.592,221.367 302.566,220.083 302.566 C 218.800 302.565,218.253 302.591,218.868 302.623 M229.534 302.623 C 230.149 302.655,231.199 302.656,231.868 302.624 C 232.536 302.592,232.033 302.566,230.750 302.566 C 229.467 302.565,228.920 302.591,229.534 302.623 M177.904 316.500 C 177.904 318.471,177.928 319.277,177.958 318.292 C 177.987 317.306,177.987 315.694,177.958 314.708 C 177.928 313.723,177.904 314.529,177.904 316.500 M189.609 316.958 C 189.566 317.027,190.443 317.064,191.557 317.040 C 195.357 316.958,195.754 316.899,192.718 316.866 C 191.051 316.848,189.651 316.890,189.609 316.958 " stroke="none" fill="#dc776f" fill-rule="evenodd"></path><path id="path21" d="M230.542 192.291 C 231.802 192.320,233.865 192.320,235.125 192.291 C 236.385 192.263,235.354 192.240,232.833 192.240 C 230.313 192.240,229.281 192.263,230.542 192.291 M272.333 195.173 C 263.854 195.234,251.027 195.344,243.829 195.418 L 230.740 195.552 229.264 197.901 C 228.452 199.193,227.620 200.512,227.414 200.833 C 227.208 201.154,226.216 202.729,225.210 204.333 C 220.707 211.510,218.589 214.880,215.993 219.000 C 214.462 221.429,211.726 225.779,209.912 228.667 C 206.851 233.539,202.418 240.585,201.313 242.333 C 201.053 242.746,199.943 244.508,198.847 246.250 L 196.854 249.417 205.802 249.468 C 210.723 249.495,224.575 249.439,236.583 249.341 C 248.592 249.244,260.343 249.165,262.698 249.165 L 266.979 249.167 267.585 248.208 C 267.918 247.681,268.671 246.463,269.258 245.500 C 269.844 244.537,270.386 243.675,270.461 243.583 C 270.536 243.492,270.854 242.967,271.167 242.417 C 271.480 241.867,271.797 241.342,271.871 241.250 C 272.017 241.070,273.713 238.350,274.105 237.667 C 274.236 237.438,274.472 237.050,274.630 236.806 C 275.079 236.111,276.076 234.434,276.150 234.250 C 276.187 234.158,276.264 234.046,276.321 234.000 C 276.509 233.850,278.667 230.312,278.667 230.154 C 278.667 230.069,278.723 230.000,278.793 230.000 C 278.862 230.000,279.012 229.789,279.126 229.531 C 279.240 229.274,279.484 228.902,279.667 228.705 C 279.850 228.508,280.000 228.314,280.000 228.274 C 280.000 228.233,280.294 227.763,280.653 227.229 C 281.012 226.695,281.270 226.199,281.227 226.129 C 281.183 226.058,281.226 226.000,281.323 226.000 C 281.421 226.000,281.500 225.894,281.500 225.764 C 281.500 225.634,281.562 225.503,281.639 225.472 C 281.841 225.391,283.053 223.454,283.054 223.208 C 283.055 223.094,283.111 223.000,283.179 223.000 C 283.334 223.000,285.833 218.940,285.833 218.687 C 285.833 218.584,285.892 218.500,285.964 218.500 C 286.036 218.500,286.237 218.256,286.410 217.958 C 286.583 217.660,287.375 216.367,288.169 215.083 C 288.964 213.800,290.329 211.588,291.202 210.167 C 292.076 208.746,294.525 204.784,296.645 201.362 C 298.765 197.940,300.500 195.109,300.500 195.070 C 300.500 194.992,294.877 195.012,272.333 195.173 M195.958 213.451 C 196.165 213.491,196.502 213.491,196.708 213.451 C 196.915 213.411,196.746 213.379,196.333 213.379 C 195.921 213.379,195.752 213.411,195.958 213.451 M252.746 217.529 C 253.850 218.032,253.488 219.052,250.979 222.510 C 245.940 229.453,246.029 229.389,241.199 229.471 C 235.940 229.560,235.899 229.337,240.112 223.544 C 244.454 217.572,244.783 217.354,249.450 217.341 C 251.303 217.336,252.469 217.402,252.746 217.529 M270.958 217.657 C 271.525 218.130,271.323 219.358,270.552 220.137 C 270.432 220.258,270.333 220.420,270.333 220.497 C 270.333 220.808,268.766 222.220,267.935 222.657 C 267.052 223.122,267.048 223.127,267.304 223.550 C 267.968 224.644,265.722 227.897,263.529 229.019 C 262.639 229.473,256.072 229.728,255.339 229.337 C 253.966 228.602,256.666 224.473,259.203 223.427 L 259.917 223.133 259.917 222.191 C 259.917 220.677,261.716 218.555,263.710 217.716 C 264.948 217.195,270.352 217.152,270.958 217.657 M241.770 217.865 C 242.414 218.510,241.801 220.076,240.220 221.822 C 239.243 222.902,238.117 223.611,235.167 225.001 C 234.112 225.498,232.838 226.109,232.333 226.359 L 231.417 226.814 233.976 226.824 C 236.888 226.835,236.765 226.725,235.637 228.312 L 234.917 229.324 230.282 229.329 C 226.616 229.332,225.674 229.290,225.774 229.125 C 225.844 229.010,226.379 228.264,226.961 227.465 C 228.096 225.912,227.897 226.050,231.167 224.540 C 232.989 223.698,235.808 222.365,236.626 221.959 C 237.304 221.622,238.241 220.422,238.058 220.126 C 238.015 220.056,236.822 220.000,235.407 220.000 C 233.991 220.000,232.833 219.953,232.833 219.895 C 232.833 219.838,233.219 219.270,233.691 218.634 L 234.549 217.476 238.019 217.530 C 241.008 217.576,241.528 217.622,241.770 217.865 M260.892 217.708 C 260.821 217.823,259.021 220.317,256.891 223.250 C 254.761 226.183,252.899 228.752,252.752 228.958 C 252.503 229.307,249.333 229.578,249.333 229.251 C 249.333 229.167,250.499 227.549,254.653 221.868 C 255.684 220.458,255.679 220.415,254.512 220.762 C 253.429 221.083,253.394 221.049,253.684 219.963 C 253.952 218.962,253.968 218.951,256.463 218.076 C 258.214 217.462,261.195 217.214,260.892 217.708 M246.167 220.048 C 245.384 220.443,240.955 226.678,241.249 226.971 C 241.508 227.229,243.927 227.086,244.385 226.786 C 245.029 226.364,249.333 220.515,249.333 220.062 C 249.333 219.759,246.762 219.748,246.167 220.048 M264.152 220.278 C 263.493 220.793,262.787 221.791,262.925 222.014 C 263.074 222.255,265.132 222.193,265.633 221.933 C 266.385 221.542,267.289 220.333,267.081 219.997 C 266.843 219.610,264.749 219.811,264.152 220.278 M260.869 224.845 C 260.286 225.023,259.977 225.289,259.375 226.130 C 258.757 226.992,258.827 227.036,260.733 226.974 C 262.127 226.928,262.532 226.857,262.804 226.611 C 263.306 226.156,264.065 225.009,263.944 224.889 C 263.759 224.704,261.437 224.671,260.869 224.845 M242.467 254.124 C 243.412 254.154,244.912 254.154,245.801 254.124 C 246.689 254.094,245.917 254.070,244.083 254.070 C 242.250 254.070,241.523 254.095,242.467 254.124 " stroke="none" fill="#9e9fa0" fill-rule="evenodd"></path><path id="path22" d="M193.125 71.784 C 193.331 71.824,193.669 71.824,193.875 71.784 C 194.081 71.745,193.912 71.712,193.500 71.712 C 193.088 71.712,192.919 71.745,193.125 71.784 M206.625 71.784 C 206.831 71.824,207.169 71.824,207.375 71.784 C 207.581 71.745,207.412 71.712,207.000 71.712 C 206.588 71.712,206.419 71.745,206.625 71.784 M72.205 191.833 C 72.205 192.154,72.240 192.285,72.282 192.125 C 72.323 191.965,72.323 191.702,72.282 191.542 C 72.240 191.381,72.205 191.512,72.205 191.833 M328.400 199.750 C 328.400 201.125,328.426 201.665,328.457 200.951 C 328.489 200.236,328.488 199.111,328.457 198.451 C 328.425 197.790,328.400 198.375,328.400 199.750 M72.209 207.583 C 72.211 207.950,72.245 208.080,72.285 207.873 C 72.324 207.666,72.323 207.366,72.281 207.206 C 72.239 207.047,72.207 207.217,72.209 207.583 M137.570 273.059 C 137.522 273.183,137.510 273.765,137.543 274.351 L 137.602 275.417 137.635 274.213 L 137.667 273.010 139.875 272.958 L 142.083 272.906 139.870 272.870 C 138.135 272.841,137.637 272.882,137.570 273.059 M147.542 272.958 C 148.802 272.986,150.865 272.986,152.125 272.958 C 153.385 272.930,152.354 272.906,149.833 272.906 C 147.313 272.906,146.281 272.930,147.542 272.958 M192.625 272.954 C 192.923 272.991,193.410 272.991,193.708 272.954 C 194.006 272.917,193.762 272.887,193.167 272.887 C 192.571 272.887,192.327 272.917,192.625 272.954 M204.292 272.958 C 205.231 272.987,206.769 272.987,207.708 272.958 C 208.648 272.928,207.879 272.904,206.000 272.904 C 204.121 272.904,203.352 272.928,204.292 272.958 M217.553 272.958 C 219.737 272.985,223.262 272.985,225.386 272.958 C 227.511 272.932,225.725 272.910,221.417 272.910 C 217.108 272.910,215.370 272.932,217.553 272.958 M247.000 272.949 C 250.062 273.068,253.296 273.073,253.225 272.958 C 253.182 272.890,251.483 272.848,249.448 272.867 C 247.414 272.885,246.313 272.922,247.000 272.949 M220.230 280.083 C 220.231 281.183,220.258 281.612,220.290 281.035 C 220.323 280.459,220.323 279.559,220.290 279.035 C 220.257 278.512,220.230 278.983,220.230 280.083 M137.578 289.000 C 137.578 294.179,137.599 296.298,137.625 293.708 C 137.651 291.119,137.651 286.881,137.625 284.292 C 137.599 281.702,137.578 283.821,137.578 289.000 M229.573 285.667 C 229.573 288.188,229.596 289.219,229.625 287.958 C 229.653 286.698,229.653 284.635,229.625 283.375 C 229.596 282.115,229.573 283.146,229.573 285.667 M193.667 290.917 C 193.667 295.026,193.703 298.353,193.747 298.309 C 193.858 298.198,193.868 283.646,193.757 283.535 C 193.707 283.485,193.667 286.807,193.667 290.917 M248.868 289.123 C 249.482 289.155,250.532 289.156,251.201 289.124 C 251.870 289.092,251.367 289.066,250.083 289.066 C 248.800 289.065,248.253 289.091,248.868 289.123 M164.743 311.583 C 164.743 315.433,164.765 316.985,164.792 315.030 C 164.818 313.076,164.818 309.926,164.791 308.030 C 164.765 306.135,164.743 307.733,164.743 311.583 " stroke="none" fill="#82a1cd" fill-rule="evenodd"></path><path id="path23" d="M173.292 309.458 C 174.140 309.488,175.527 309.488,176.375 309.458 C 177.223 309.427,176.529 309.403,174.833 309.403 C 173.137 309.403,172.444 309.427,173.292 309.458 M222.788 309.454 C 223.084 309.490,223.609 309.491,223.955 309.455 C 224.300 309.419,224.058 309.389,223.417 309.388 C 222.775 309.387,222.492 309.417,222.788 309.454 M235.564 315.167 C 235.564 316.313,235.591 316.781,235.623 316.208 C 235.656 315.635,235.656 314.698,235.623 314.125 C 235.591 313.552,235.564 314.021,235.564 315.167 M208.042 320.124 C 208.935 320.154,210.398 320.154,211.292 320.124 C 212.185 320.094,211.454 320.070,209.667 320.070 C 207.879 320.070,207.148 320.094,208.042 320.124 " stroke="none" fill="#e18c81" fill-rule="evenodd"></path><path id="path24" d="" stroke="none" fill="#acabaa" fill-rule="evenodd"></path><path id="path25" d="M195.083 71.677 C 186.740 72.126,178.857 73.138,172.667 74.554 C 167.971 75.629,165.703 76.243,160.667 77.801 C 159.578 78.138,157.275 78.956,154.333 80.051 C 149.056 82.016,140.819 85.956,135.800 88.916 C 130.085 92.286,120.482 98.995,118.500 101.001 C 118.454 101.047,117.929 101.496,117.333 101.997 C 98.933 117.482,83.963 140.218,77.551 162.417 C 76.416 166.346,75.926 168.184,75.421 170.417 C 75.172 171.517,74.904 172.642,74.825 172.917 C 73.949 175.958,72.730 185.122,72.255 192.241 C 71.829 198.631,72.109 209.393,72.826 214.167 C 72.915 214.762,73.073 215.963,73.176 216.833 C 73.465 219.278,74.064 222.739,75.015 227.458 L 75.226 228.500 81.266 228.500 L 87.307 228.500 91.695 225.963 C 96.655 223.096,96.981 222.991,97.862 223.978 C 98.965 225.213,98.599 226.182,96.583 227.367 C 95.850 227.798,95.138 228.225,95.000 228.316 C 94.835 228.425,102.511 228.484,117.692 228.490 L 140.633 228.500 140.829 227.684 C 141.023 226.876,141.018 226.857,140.272 225.559 C 136.653 219.267,139.514 211.916,146.689 209.069 C 147.359 208.803,147.564 208.593,148.239 207.484 C 148.667 206.781,149.536 205.559,150.169 204.770 L 151.321 203.335 150.072 202.493 C 147.263 200.597,144.175 197.805,141.827 195.040 L 141.083 194.163 137.583 196.185 C 135.658 197.297,129.021 201.134,122.833 204.712 C 116.646 208.289,111.324 211.325,111.008 211.458 C 109.711 212.002,108.417 211.061,108.417 209.574 C 108.417 208.428,108.616 208.227,111.250 206.703 C 112.350 206.067,118.950 202.264,125.917 198.253 C 132.883 194.241,138.636 190.928,138.701 190.891 C 138.766 190.853,138.587 190.431,138.305 189.953 C 130.985 177.554,132.169 158.197,141.143 143.544 L 141.984 142.170 140.773 140.377 C 134.708 131.396,134.616 124.369,140.506 119.785 C 146.380 115.213,154.039 115.673,162.712 121.117 L 164.175 122.035 166.712 120.864 C 173.732 117.624,179.458 115.965,187.333 114.890 C 190.516 114.456,199.972 114.452,202.917 114.883 C 206.672 115.433,210.076 116.137,212.029 116.767 L 212.808 117.018 220.899 112.347 C 225.349 109.778,229.169 107.631,229.388 107.576 C 230.349 107.334,231.500 108.342,231.500 109.424 C 231.500 110.420,231.155 110.669,224.224 114.669 C 220.520 116.807,217.548 118.611,217.620 118.678 C 217.691 118.744,218.137 118.963,218.609 119.163 L 219.468 119.527 220.191 118.722 C 226.523 111.664,234.969 111.320,241.362 117.861 C 247.035 123.666,247.624 130.992,243.038 138.702 L 241.975 140.487 242.834 142.267 C 250.391 157.935,250.626 176.221,243.451 190.230 C 242.975 191.158,242.559 191.980,242.524 192.057 C 242.490 192.134,254.969 192.175,270.255 192.149 L 298.047 192.100 299.359 193.475 C 300.437 194.605,300.641 194.902,300.509 195.149 C 300.421 195.314,299.285 197.167,297.985 199.266 C 296.684 201.366,295.152 203.840,294.580 204.765 L 293.539 206.446 298.855 203.373 C 305.056 199.789,305.564 199.646,306.425 201.243 C 307.257 202.789,307.280 202.770,297.745 208.257 C 293.348 210.788,289.630 212.984,289.483 213.137 C 289.253 213.377,287.668 215.922,282.200 224.831 C 281.610 225.792,280.873 226.974,280.564 227.459 C 280.254 227.943,280.000 228.376,280.000 228.420 C 280.000 228.464,290.161 228.500,302.580 228.500 L 325.160 228.500 325.247 228.125 C 326.699 221.880,327.792 214.046,328.161 207.250 C 328.478 201.399,328.328 192.348,327.834 187.583 C 327.316 182.592,326.425 176.646,325.761 173.750 C 325.635 173.200,325.367 172.000,325.166 171.083 C 324.000 165.768,320.867 155.684,319.411 152.558 C 319.277 152.269,319.167 151.981,319.167 151.917 C 319.167 151.853,319.060 151.564,318.929 151.275 C 318.799 150.986,318.455 150.188,318.166 149.500 C 316.052 144.474,311.998 136.697,309.087 132.083 C 307.793 130.033,306.662 128.333,306.592 128.333 C 306.552 128.333,305.821 128.739,304.968 129.234 C 294.465 135.332,286.258 140.012,285.920 140.097 C 284.341 140.494,283.052 138.247,284.210 137.117 C 284.417 136.915,289.062 134.166,294.533 131.008 L 304.479 125.266 304.198 124.787 C 304.043 124.524,303.804 124.183,303.667 124.030 C 303.529 123.876,303.084 123.300,302.677 122.750 C 297.911 116.305,290.969 108.872,283.993 102.744 C 282.453 101.391,277.984 97.854,275.750 96.220 C 261.884 86.079,245.803 78.703,229.333 74.932 C 228.279 74.690,227.117 74.420,226.750 74.332 C 224.718 73.843,220.099 73.080,216.667 72.668 C 215.154 72.486,213.729 72.300,213.500 72.254 C 211.367 71.826,199.327 71.449,195.083 71.677 M209.837 83.085 C 210.809 83.588,210.999 84.979,210.208 85.811 C 209.869 86.168,189.994 97.778,187.355 99.160 C 185.972 99.884,184.470 98.775,184.723 97.216 C 184.868 96.326,184.472 96.580,196.500 89.661 C 202.596 86.155,207.731 83.184,207.912 83.060 C 208.347 82.761,209.232 82.772,209.837 83.085 M162.078 97.737 C 163.024 98.132,163.443 99.397,162.932 100.318 C 162.685 100.764,162.754 100.724,143.464 111.857 C 136.156 116.074,129.963 119.606,129.701 119.705 C 128.569 120.132,127.417 119.289,127.417 118.032 C 127.417 116.865,127.415 116.866,133.069 113.605 C 135.827 112.014,142.996 107.881,149.000 104.419 C 155.004 100.958,160.006 98.055,160.114 97.968 C 160.294 97.824,161.062 97.549,161.380 97.514 C 161.452 97.506,161.766 97.607,162.078 97.737 M272.734 117.732 C 274.039 118.278,274.244 120.008,273.101 120.833 C 270.635 122.613,250.000 134.173,249.417 134.102 C 248.502 133.990,247.833 133.244,247.833 132.333 C 247.833 131.242,248.242 130.966,259.500 124.480 C 273.316 116.519,271.745 117.320,272.734 117.732 M131.578 141.070 C 132.259 141.355,132.667 142.073,132.667 142.989 C 132.667 144.226,135.589 142.437,101.083 162.327 C 94.208 166.291,87.736 170.023,86.701 170.621 C 84.122 172.111,82.651 171.861,82.386 169.887 C 82.224 168.677,82.526 168.371,85.705 166.531 C 97.484 159.711,125.266 143.674,128.743 141.686 C 130.338 140.775,130.689 140.699,131.578 141.070 M293.267 160.900 C 294.455 162.088,293.949 163.164,291.565 164.523 C 290.658 165.040,288.304 166.394,286.333 167.532 C 261.734 181.737,260.378 182.500,259.756 182.500 C 258.341 182.500,257.453 180.634,258.375 179.597 C 258.581 179.365,265.275 175.417,273.250 170.824 C 281.225 166.231,288.575 161.992,289.583 161.405 C 291.818 160.104,292.392 160.026,293.267 160.900 M106.294 184.385 C 106.953 185.043,106.999 186.150,106.394 186.793 C 106.131 187.072,103.517 188.685,100.583 190.378 C 97.650 192.071,92.550 195.018,89.250 196.928 C 82.649 200.747,82.342 200.869,81.435 200.017 C 79.835 198.514,80.362 197.790,85.000 195.123 C 87.063 193.937,89.763 192.381,91.000 191.665 C 106.534 182.681,105.217 183.308,106.294 184.385 M109.012 268.167 L 112.940 268.250 105.402 272.595 L 97.863 276.941 99.371 278.845 C 101.581 281.636,102.290 282.478,104.911 285.424 C 106.288 286.972,112.456 293.189,113.917 294.502 C 119.163 299.215,123.995 302.959,129.667 306.705 C 133.877 309.486,137.297 311.492,136.927 310.964 C 135.894 309.490,136.150 309.295,148.500 302.187 C 154.412 298.784,159.346 295.938,159.464 295.862 C 159.659 295.736,159.989 294.923,161.744 290.250 C 162.054 289.425,162.765 287.550,163.324 286.083 C 163.884 284.617,165.061 281.504,165.939 279.167 C 166.817 276.829,167.559 274.878,167.588 274.830 C 167.616 274.782,166.539 274.303,165.195 273.765 C 162.201 272.567,157.576 270.358,155.476 269.124 L 153.917 268.206 129.500 268.145 C 116.071 268.111,106.851 268.121,109.012 268.167 M207.344 268.126 L 194.000 268.169 194.000 268.653 C 194.000 269.397,193.432 271.052,192.856 271.990 L 192.336 272.833 193.221 272.833 L 194.105 272.833 196.261 276.620 C 197.446 278.702,198.689 280.896,199.021 281.495 C 199.354 282.093,200.310 283.783,201.146 285.250 L 202.665 287.917 202.666 280.375 L 202.667 272.833 205.998 272.833 L 209.329 272.833 209.373 278.488 L 209.417 284.143 211.417 282.986 L 213.417 281.828 213.504 283.789 C 213.551 284.868,213.589 282.862,213.587 279.333 L 213.583 272.917 221.167 272.873 C 230.902 272.817,231.912 272.979,234.008 274.940 C 236.009 276.812,236.250 277.972,236.250 285.750 C 236.250 293.552,236.031 294.529,233.835 296.549 C 231.871 298.355,230.977 298.492,221.125 298.497 L 213.500 298.500 213.500 292.259 L 213.500 286.017 211.420 287.217 L 209.340 288.417 209.336 293.458 L 209.333 298.500 205.849 298.500 L 202.364 298.500 201.072 296.267 C 199.811 294.088,199.764 294.031,199.122 293.929 C 197.793 293.716,197.110 292.371,197.688 291.102 C 197.859 290.728,197.690 290.365,195.897 287.254 L 193.917 283.818 193.833 291.117 L 193.750 298.417 190.375 298.462 L 187.000 298.507 187.000 287.511 L 187.000 276.516 186.208 276.769 C 184.430 277.337,181.804 277.681,179.625 277.631 C 178.456 277.605,177.500 277.609,177.500 277.641 C 177.500 277.673,177.610 277.936,177.744 278.225 C 177.878 278.514,178.407 279.875,178.920 281.250 C 180.514 285.519,180.946 286.665,182.001 289.417 C 182.564 290.883,183.396 293.096,183.851 294.333 C 184.306 295.571,184.782 296.808,184.909 297.083 C 185.037 297.358,185.193 297.791,185.256 298.045 L 185.371 298.507 181.747 298.462 L 178.124 298.417 177.333 296.250 L 176.543 294.083 172.043 294.039 L 167.543 293.995 166.730 296.247 L 165.917 298.500 164.096 298.500 L 162.275 298.500 158.263 300.817 C 156.056 302.091,150.912 305.066,146.833 307.428 C 142.150 310.140,139.186 311.759,138.791 311.820 L 138.165 311.917 139.208 312.475 C 142.104 314.027,146.418 316.114,149.750 317.575 C 156.335 320.461,165.083 323.244,173.250 325.052 C 185.974 327.868,202.290 328.623,215.239 326.995 C 218.037 326.644,218.235 326.597,217.677 326.420 C 216.649 326.094,216.577 324.259,217.561 323.462 C 217.898 323.189,216.643 323.174,193.167 323.169 L 168.417 323.163 167.577 322.772 C 164.939 321.544,164.750 320.794,164.750 311.583 C 164.750 302.355,164.903 301.742,167.535 300.431 L 168.399 300.000 200.158 300.002 L 231.917 300.003 232.750 300.392 C 233.946 300.951,234.530 301.505,235.091 302.611 L 235.583 303.583 235.636 308.274 L 235.690 312.966 238.720 311.213 C 251.819 303.636,251.031 303.998,252.100 305.067 C 252.783 305.750,252.877 306.687,252.333 307.380 C 252.149 307.613,248.334 309.917,243.856 312.499 L 235.713 317.194 235.618 318.446 C 235.345 322.055,233.704 323.163,228.626 323.165 L 225.336 323.167 222.709 324.683 C 221.265 325.517,220.046 326.238,220.000 326.286 C 219.575 326.724,230.614 324.368,235.167 323.048 C 238.758 322.008,240.472 321.464,242.667 320.671 C 243.721 320.290,244.808 319.902,245.083 319.808 C 245.358 319.715,245.733 319.574,245.917 319.495 C 246.100 319.416,246.775 319.150,247.417 318.905 C 248.058 318.660,248.808 318.363,249.083 318.244 C 257.003 314.838,261.878 312.315,268.333 308.283 C 271.722 306.166,271.747 306.148,270.947 306.277 C 269.726 306.475,268.833 305.731,268.833 304.515 C 268.833 303.571,269.216 303.221,272.000 301.616 C 273.329 300.850,277.904 298.212,282.167 295.754 L 289.917 291.284 291.805 289.350 C 293.372 287.745,296.090 284.777,298.153 282.417 C 300.823 279.363,308.500 268.865,308.500 268.268 C 308.500 268.137,240.013 268.053,239.958 268.184 C 239.779 268.620,236.393 270.570,234.792 271.160 C 230.330 272.804,224.756 271.842,221.543 268.873 L 220.688 268.083 207.344 268.126 M92.118 268.625 C 92.978 269.973,95.085 273.120,95.286 273.357 C 95.478 273.583,103.961 269.022,104.819 268.231 C 104.858 268.195,101.950 268.167,98.357 268.167 L 91.826 268.167 92.118 268.625 M282.616 269.659 C 284.270 270.668,283.682 272.129,281.000 273.674 C 279.946 274.282,274.546 277.390,269.000 280.580 C 263.454 283.771,258.816 286.474,258.693 286.587 C 258.453 286.807,258.534 287.051,260.838 293.083 C 262.234 296.736,262.833 298.343,262.833 298.428 C 262.833 298.468,261.202 298.500,259.208 298.500 L 255.583 298.500 254.948 296.708 C 254.599 295.723,254.233 294.709,254.135 294.456 L 253.957 293.995 249.457 294.039 L 244.957 294.083 244.160 296.250 L 243.364 298.417 239.765 298.462 C 237.786 298.486,236.168 298.449,236.169 298.378 C 236.170 298.308,236.625 297.050,237.179 295.583 C 237.734 294.117,238.553 291.942,239.000 290.750 C 239.448 289.558,240.159 287.683,240.582 286.583 C 241.004 285.483,241.715 283.608,242.163 282.417 C 242.610 281.225,243.601 278.600,244.365 276.583 L 245.754 272.917 249.465 272.872 C 252.889 272.830,253.182 272.850,253.269 273.122 C 253.321 273.284,253.429 273.567,253.510 273.750 C 253.666 274.105,254.326 275.850,255.685 279.500 C 256.145 280.737,256.630 281.986,256.761 282.275 C 256.893 282.564,257.000 282.891,257.000 283.001 C 257.000 283.287,256.332 283.659,269.250 276.190 C 281.709 268.987,281.601 269.040,282.616 269.659 M144.675 272.421 C 144.945 272.561,145.167 272.730,145.167 272.796 C 145.166 272.862,147.060 272.893,149.375 272.864 C 158.937 272.745,160.250 273.868,160.250 282.167 C 160.250 290.211,159.296 291.043,149.958 291.133 L 144.333 291.187 144.333 294.847 L 144.333 298.507 140.958 298.462 L 137.583 298.417 137.540 289.108 C 137.506 281.777,137.453 279.816,137.290 279.878 C 137.176 279.922,133.671 281.925,129.500 284.330 C 120.886 289.295,120.683 289.369,119.778 287.836 C 118.872 286.303,119.197 286.021,127.210 281.405 C 130.990 279.227,134.871 276.989,135.833 276.431 L 137.583 275.417 137.583 274.167 L 137.583 272.917 139.917 272.833 C 141.696 272.770,142.369 272.682,142.750 272.465 C 143.377 272.108,144.040 272.093,144.675 272.421 M144.333 282.094 L 144.333 286.021 148.400 285.969 C 153.681 285.901,153.667 285.911,153.667 282.092 C 153.667 278.199,153.621 278.167,148.172 278.167 L 144.333 278.167 144.333 282.094 M223.456 278.943 C 223.556 279.998,223.216 280.432,221.578 281.336 L 220.333 282.023 220.333 287.595 L 220.333 293.167 223.881 293.167 C 229.745 293.167,229.526 293.468,229.462 285.500 C 229.404 278.093,229.526 278.323,225.565 278.202 L 223.379 278.135 223.456 278.943 M171.940 281.167 C 171.668 281.860,169.333 288.804,169.333 288.922 C 169.333 288.965,170.561 289.000,172.061 289.000 L 174.789 289.000 173.478 285.125 C 172.757 282.994,172.139 281.175,172.103 281.083 C 172.068 280.992,171.995 281.029,171.940 281.167 M249.223 281.626 C 249.124 281.969,248.517 283.769,247.873 285.625 L 246.702 289.000 247.228 289.000 C 247.563 289.000,247.825 288.886,247.950 288.685 C 248.058 288.512,248.825 287.982,249.653 287.508 C 251.553 286.420,251.472 286.784,250.481 283.808 C 249.498 280.855,249.462 280.793,249.223 281.626 " stroke="none" fill="#8eb1df" fill-rule="evenodd"></path><path id="path26" d="M182.411 311.250 C 182.411 316.017,182.432 317.943,182.458 315.530 C 182.484 313.117,182.484 309.217,182.458 306.863 C 182.432 304.509,182.411 306.483,182.411 311.250 " stroke="none" fill="#e7a6a0" fill-rule="evenodd"></path><path id="path27" d="M217.240 161.542 L 216.750 162.083 217.292 161.594 C 217.797 161.138,217.910 161.000,217.781 161.000 C 217.752 161.000,217.509 161.244,217.240 161.542 M162.740 165.375 L 162.250 165.917 162.792 165.427 C 163.090 165.158,163.333 164.914,163.333 164.885 C 163.333 164.757,163.196 164.870,162.740 165.375 M201.460 185.618 C 201.668 185.658,201.968 185.656,202.127 185.615 C 202.286 185.573,202.117 185.540,201.750 185.542 C 201.383 185.544,201.253 185.578,201.460 185.618 M171.627 192.285 C 171.834 192.324,172.134 192.323,172.294 192.281 C 172.453 192.239,172.283 192.207,171.917 192.209 C 171.550 192.211,171.420 192.245,171.627 192.285 M173.125 192.284 C 173.331 192.324,173.669 192.324,173.875 192.284 C 174.081 192.245,173.912 192.212,173.500 192.212 C 173.088 192.212,172.919 192.245,173.125 192.284 M202.127 192.951 C 202.334 192.991,202.634 192.990,202.794 192.948 C 202.953 192.906,202.783 192.874,202.417 192.875 C 202.050 192.877,201.920 192.911,202.127 192.951 " stroke="none" fill="#c1c0c0" fill-rule="evenodd"></path><path id="path28" d="M128.875 119.782 C 129.035 119.823,129.298 119.823,129.458 119.782 C 129.619 119.740,129.487 119.705,129.167 119.705 C 128.846 119.705,128.715 119.740,128.875 119.782 M285.208 140.115 C 285.369 140.157,285.631 140.157,285.792 140.115 C 285.952 140.073,285.821 140.039,285.500 140.039 C 285.179 140.039,285.048 140.073,285.208 140.115 M130.375 140.948 C 130.535 140.990,130.798 140.990,130.958 140.948 C 131.119 140.906,130.987 140.872,130.667 140.872 C 130.346 140.872,130.215 140.906,130.375 140.948 M248.545 164.667 C 248.545 165.079,248.578 165.248,248.618 165.042 C 248.657 164.835,248.657 164.498,248.618 164.292 C 248.578 164.085,248.545 164.254,248.545 164.667 M248.545 170.333 C 248.545 170.746,248.578 170.915,248.618 170.708 C 248.657 170.502,248.657 170.165,248.618 169.958 C 248.578 169.752,248.545 169.921,248.545 170.333 M306.539 202.000 C 306.539 202.321,306.573 202.452,306.615 202.292 C 306.657 202.131,306.657 201.869,306.615 201.708 C 306.573 201.548,306.539 201.679,306.539 202.000 M281.294 269.451 C 281.501 269.491,281.801 269.490,281.960 269.448 C 282.120 269.406,281.950 269.374,281.583 269.375 C 281.217 269.377,281.086 269.411,281.294 269.451 M144.907 272.652 C 145.003 272.806,144.690 272.846,143.596 272.820 C 142.805 272.801,142.111 272.834,142.052 272.893 C 141.993 272.952,142.669 273.000,143.556 273.000 C 145.043 273.000,145.466 272.871,144.974 272.567 C 144.851 272.492,144.827 272.522,144.907 272.652 M137.417 277.651 C 137.417 278.834,137.473 279.767,137.542 279.724 C 137.610 279.682,137.667 278.714,137.667 277.573 C 137.667 276.433,137.610 275.500,137.542 275.500 C 137.473 275.500,137.417 276.468,137.417 277.651 M119.542 286.917 C 119.544 287.283,119.578 287.414,119.618 287.206 C 119.658 286.999,119.656 286.699,119.615 286.540 C 119.573 286.380,119.540 286.550,119.542 286.917 M289.435 291.589 C 289.294 291.730,289.120 291.849,289.048 291.853 C 288.803 291.868,288.832 291.944,289.083 291.944 C 289.220 291.944,289.456 291.807,289.608 291.639 C 289.943 291.270,289.796 291.228,289.435 291.589 M136.709 310.083 C 136.711 310.450,136.745 310.580,136.785 310.373 C 136.824 310.166,136.823 309.866,136.781 309.706 C 136.739 309.547,136.707 309.717,136.709 310.083 " stroke="none" fill="#a3c5ea" fill-rule="evenodd"></path><path id="path29" d="M171.737 306.000 C 171.737 307.879,171.761 308.648,171.791 307.708 C 171.821 306.769,171.821 305.231,171.791 304.292 C 171.761 303.352,171.737 304.121,171.737 306.000 M171.741 313.046 C 171.696 313.164,171.681 314.757,171.708 316.588 L 171.757 319.917 171.795 316.462 L 171.833 313.008 174.875 312.958 L 177.917 312.909 174.870 312.871 C 172.522 312.842,171.804 312.882,171.741 313.046 M222.788 312.954 C 223.084 312.990,223.609 312.991,223.955 312.955 C 224.300 312.919,224.058 312.889,223.417 312.888 C 222.775 312.887,222.492 312.917,222.788 312.954 " stroke="none" fill="#eebebd" fill-rule="evenodd"></path><path id="path30" d="M208.333 82.950 C 208.196 83.008,204.896 84.892,201.000 87.136 C 183.071 97.465,184.750 96.386,184.750 97.583 C 184.750 99.641,186.161 99.791,189.172 98.052 C 190.412 97.336,195.651 94.313,200.814 91.334 C 210.647 85.661,210.667 85.647,210.667 84.511 C 210.667 83.507,209.254 82.562,208.333 82.950 M147.991 105.052 C 126.731 117.324,127.815 116.674,127.549 117.309 C 127.060 118.476,127.837 119.667,129.089 119.667 C 129.715 119.667,130.732 119.127,137.691 115.103 C 142.032 112.594,149.408 108.335,154.083 105.640 C 164.031 99.905,164.155 99.796,162.504 98.145 C 161.544 97.185,161.986 96.975,147.991 105.052 M221.040 112.323 C 216.616 114.881,212.903 117.011,212.790 117.057 C 212.676 117.103,212.750 117.146,212.953 117.154 C 213.157 117.161,214.210 117.489,215.293 117.882 L 217.262 118.597 224.090 114.662 C 229.984 111.265,230.957 110.649,231.210 110.155 C 231.590 109.416,231.455 108.720,230.819 108.125 C 229.854 107.224,229.879 107.213,221.040 112.323 M191.877 114.620 C 192.131 114.658,192.506 114.657,192.711 114.617 C 192.916 114.578,192.708 114.546,192.250 114.548 C 191.792 114.549,191.624 114.581,191.877 114.620 M197.708 114.619 C 197.960 114.658,198.373 114.658,198.625 114.619 C 198.877 114.581,198.671 114.550,198.167 114.550 C 197.662 114.550,197.456 114.581,197.708 114.619 M269.583 118.739 C 268.575 119.324,263.400 122.317,258.083 125.388 C 248.148 131.128,247.835 131.340,247.835 132.333 C 247.834 133.452,249.093 134.376,250.097 133.995 C 250.585 133.809,252.710 132.597,263.917 126.108 C 267.400 124.092,270.918 122.061,271.734 121.596 C 273.926 120.347,274.381 119.348,273.267 118.233 C 272.394 117.361,271.820 117.440,269.583 118.739 M294.500 131.096 C 289.046 134.249,284.415 137.021,284.208 137.257 C 283.282 138.315,284.072 140.000,285.496 140.000 C 286.095 140.000,287.401 139.298,295.633 134.552 C 300.831 131.556,305.402 128.925,305.792 128.705 C 306.657 128.216,306.660 128.315,305.738 127.000 C 305.319 126.404,304.889 125.785,304.782 125.625 C 304.527 125.245,305.703 124.619,294.500 131.096 M121.417 145.964 C 116.742 148.680,106.212 154.768,98.017 159.494 C 88.369 165.058,82.995 168.250,82.771 168.550 C 82.001 169.582,82.508 171.036,83.797 171.491 C 84.674 171.802,83.068 172.666,102.583 161.385 C 111.475 156.245,121.750 150.312,125.417 148.202 C 130.220 145.437,132.165 144.232,132.374 143.891 C 133.182 142.573,132.274 140.988,130.725 141.013 C 129.977 141.025,129.278 141.397,121.417 145.964 M282.076 165.808 C 263.424 176.565,258.912 179.197,258.560 179.525 C 257.498 180.514,258.359 182.500,259.851 182.500 C 260.286 182.500,260.506 182.379,269.083 177.413 C 279.503 171.380,279.713 171.258,286.500 167.342 C 290.029 165.306,293.077 163.490,293.273 163.308 C 294.346 162.311,293.472 160.333,291.960 160.333 C 291.745 160.333,287.297 162.797,282.076 165.808 M248.558 167.500 C 248.558 168.279,248.587 168.598,248.622 168.208 C 248.657 167.819,248.657 167.181,248.622 166.792 C 248.587 166.402,248.558 166.721,248.558 167.500 M104.408 184.068 C 103.040 184.664,81.687 197.097,81.273 197.539 C 80.278 198.600,81.046 200.333,82.511 200.333 C 83.067 200.333,84.185 199.748,89.627 196.608 C 93.178 194.559,98.391 191.552,101.211 189.926 C 106.420 186.921,106.689 186.717,106.717 185.738 C 106.742 184.837,105.699 183.713,104.955 183.840 C 104.934 183.843,104.688 183.946,104.408 184.068 M132.083 194.736 C 128.417 196.865,121.742 200.729,117.250 203.322 C 112.758 205.915,108.954 208.197,108.795 208.393 C 107.788 209.640,108.729 211.500,110.367 211.500 C 110.787 211.500,113.777 209.851,123.083 204.486 C 129.775 200.629,136.575 196.710,138.193 195.778 L 141.137 194.083 140.566 193.333 C 140.252 192.921,139.754 192.190,139.459 191.708 C 138.806 190.644,139.908 190.191,132.083 194.736 M143.333 196.719 C 143.333 196.748,143.577 196.991,143.875 197.260 L 144.417 197.750 143.927 197.208 C 143.471 196.703,143.333 196.590,143.333 196.719 M298.917 203.419 L 293.583 206.501 291.993 209.042 C 289.745 212.633,289.584 212.903,289.760 212.801 C 289.846 212.751,292.167 211.413,294.917 209.828 C 307.586 202.527,306.500 203.257,306.500 202.052 C 306.500 201.452,306.406 201.214,306.013 200.821 C 305.091 199.898,304.864 199.981,298.917 203.419 M91.750 226.000 L 87.422 228.500 90.978 228.500 L 94.533 228.500 96.142 227.563 C 98.639 226.108,99.172 224.615,97.503 223.752 C 96.581 223.275,96.232 223.411,91.750 226.000 M100.295 270.934 L 95.507 273.694 96.440 274.972 C 96.953 275.675,97.500 276.383,97.654 276.546 C 97.921 276.828,98.284 276.640,105.092 272.700 C 109.029 270.422,112.400 268.473,112.583 268.368 C 112.841 268.220,112.027 268.176,109.000 268.175 L 105.083 268.174 100.295 270.934 M269.083 276.359 C 262.575 280.125,257.225 283.229,257.194 283.256 C 257.163 283.284,257.417 284.059,257.759 284.980 L 258.380 286.654 259.065 286.257 C 259.442 286.039,262.300 284.385,265.417 282.581 C 268.533 280.777,273.633 277.836,276.750 276.046 C 279.867 274.255,282.623 272.574,282.875 272.309 C 283.918 271.215,283.159 269.494,281.638 269.505 C 280.995 269.510,279.626 270.258,269.083 276.359 M142.921 272.419 C 142.649 272.565,142.392 272.719,142.352 272.759 C 142.311 272.800,142.906 272.833,143.675 272.833 C 144.930 272.833,145.046 272.807,144.816 272.578 C 144.427 272.189,143.494 272.111,142.921 272.419 M128.917 280.478 C 124.333 283.121,120.377 285.478,120.125 285.715 C 119.144 286.637,119.697 288.397,121.034 288.610 C 121.807 288.733,121.384 288.953,130.292 283.801 L 137.500 279.633 137.500 277.650 C 137.500 276.559,137.444 275.668,137.375 275.670 C 137.306 275.672,133.500 277.835,128.917 280.478 M220.333 280.097 L 220.333 282.027 220.875 281.693 C 221.173 281.510,221.744 281.174,222.143 280.948 C 223.300 280.292,223.770 279.316,223.327 278.489 C 223.178 278.209,222.968 278.167,221.744 278.167 L 220.333 278.167 220.333 280.097 M211.375 283.050 L 209.333 284.236 209.333 286.288 L 209.333 288.340 210.208 287.832 C 210.690 287.553,211.627 287.012,212.292 286.629 L 213.500 285.934 213.500 283.884 C 213.500 282.756,213.481 281.840,213.458 281.849 C 213.435 281.857,212.498 282.398,211.375 283.050 M249.820 287.501 C 247.364 288.920,247.373 289.000,249.974 289.000 C 251.180 289.000,252.167 288.959,252.167 288.910 C 252.167 288.646,251.454 286.667,251.361 286.671 C 251.300 286.673,250.607 287.047,249.820 287.501 M197.673 291.322 C 197.079 292.431,198.109 294.006,199.296 293.805 C 199.595 293.755,199.556 293.629,198.854 292.379 C 198.027 290.907,197.937 290.827,197.673 291.322 M279.276 297.474 C 268.571 303.674,268.696 303.586,268.892 304.798 C 269.203 306.713,270.632 306.740,273.465 304.886 C 277.461 302.270,289.333 292.428,289.333 291.731 C 289.333 291.642,290.227 291.131,279.276 297.474 M151.898 300.302 C 147.671 302.748,142.770 305.575,141.007 306.583 C 137.145 308.792,136.833 309.047,136.833 309.994 C 136.833 311.132,137.504 311.833,138.590 311.833 C 138.957 311.833,148.650 306.346,160.417 299.476 L 162.083 298.503 160.364 298.502 C 158.398 298.500,158.506 298.666,159.258 296.792 C 159.470 296.265,159.630 295.838,159.613 295.843 C 159.597 295.849,156.125 297.855,151.898 300.302 M250.226 304.722 C 249.938 304.829,246.544 306.748,242.684 308.986 L 235.667 313.056 235.667 315.105 L 235.667 317.153 239.208 315.106 C 241.156 313.980,243.912 312.384,245.333 311.560 C 246.754 310.737,248.884 309.505,250.066 308.823 C 251.857 307.789,252.255 307.488,252.457 307.008 C 253.065 305.566,251.704 304.172,250.226 304.722 M217.618 323.503 C 216.231 324.593,217.094 326.877,218.778 326.571 C 219.542 326.432,219.893 326.257,222.914 324.513 L 225.245 323.167 221.645 323.167 C 218.288 323.167,218.016 323.189,217.618 323.503 " stroke="none" fill="#b8d9f5" fill-rule="evenodd"></path><path id="path31" d="M144.039 252.833 C 144.039 253.154,144.073 253.285,144.115 253.125 C 144.157 252.965,144.157 252.702,144.115 252.542 C 144.073 252.381,144.039 252.512,144.039 252.833 M208.549 316.790 C 209.171 316.823,210.146 316.822,210.715 316.790 C 211.284 316.757,210.775 316.731,209.583 316.731 C 208.392 316.732,207.926 316.758,208.549 316.790 M168.375 319.957 C 168.994 319.989,170.006 319.989,170.625 319.957 C 171.244 319.925,170.737 319.899,169.500 319.899 C 168.262 319.899,167.756 319.925,168.375 319.957 M179.042 319.957 C 179.660 319.989,180.673 319.989,181.292 319.957 C 181.910 319.925,181.404 319.899,180.167 319.899 C 178.929 319.899,178.423 319.925,179.042 319.957 M184.958 319.957 C 185.623 319.989,186.710 319.989,187.375 319.957 C 188.040 319.925,187.496 319.900,186.167 319.900 C 184.838 319.900,184.294 319.925,184.958 319.957 M198.125 319.957 C 198.790 319.989,199.877 319.989,200.542 319.957 C 201.206 319.925,200.662 319.900,199.333 319.900 C 198.004 319.900,197.460 319.925,198.125 319.957 M219.042 319.957 C 219.660 319.989,220.673 319.989,221.292 319.957 C 221.910 319.925,221.404 319.899,220.167 319.899 C 218.929 319.899,218.423 319.925,219.042 319.957 M229.458 319.957 C 230.123 319.989,231.210 319.989,231.875 319.957 C 232.540 319.925,231.996 319.900,230.667 319.900 C 229.338 319.900,228.794 319.925,229.458 319.957 " stroke="none" fill="#f4d7d2" fill-rule="evenodd"></path></g></svg>